<svg width="1921" height="1080" viewBox="0 0 1921 1080" fill="none" xmlns="http://www.w3.org/2000/svg">
<path d="M1 -0.00012207L1921 -0.00012207V1080H1V-0.00012207Z" fill="#FFC83D"/>
<mask id="mask0" mask-type="alpha" maskUnits="userSpaceOnUse" x="0" y="0" width="1921" height="1080">
<path d="M0 181.695L1921 0V1080H0V181.695Z" fill="#FFC83D"/>
</mask>
<g mask="url(#mask0)">
<g opacity="0.5">
<path d="M672.487 545.708L677.906 551.128" stroke="white" stroke-width="1.1533" stroke-miterlimit="10" stroke-linecap="round" stroke-linejoin="round"/>
<path d="M653.718 526.94L663.763 536.985" stroke="white" stroke-width="1.1533" stroke-miterlimit="10" stroke-linecap="round" stroke-linejoin="round"/>
<path d="M670.637 528.129L708.57 566.063" stroke="white" stroke-width="1.1533" stroke-miterlimit="10" stroke-linecap="round" stroke-linejoin="round"/>
<path d="M651.34 508.832L659.138 516.498" stroke="white" stroke-width="1.1533" stroke-miterlimit="10" stroke-linecap="round" stroke-linejoin="round"/>
<path d="M697.864 539.496L731.172 572.804" stroke="white" stroke-width="1.1533" stroke-miterlimit="10" stroke-linecap="round" stroke-linejoin="round"/>
<path d="M647.639 489.271L683.193 524.825" stroke="white" stroke-width="1.1533" stroke-miterlimit="10" stroke-linecap="round" stroke-linejoin="round"/>
<path d="M675.527 501.298L734.212 560.115" stroke="white" stroke-width="1.1533" stroke-miterlimit="10" stroke-linecap="round" stroke-linejoin="round"/>
<path d="M651.207 477.111L663.631 489.535" stroke="white" stroke-width="1.1533" stroke-miterlimit="10" stroke-linecap="round" stroke-linejoin="round"/>
<path d="M724.035 534.077L738.045 548.22" stroke="white" stroke-width="1.1533" stroke-miterlimit="10" stroke-linecap="round" stroke-linejoin="round"/>
<path d="M637.065 447.107L709.099 519.142" stroke="white" stroke-width="1.1533" stroke-miterlimit="10" stroke-linecap="round" stroke-linejoin="round"/>
<path d="M694.824 489.138L765.273 559.454" stroke="white" stroke-width="1.1533" stroke-miterlimit="10" stroke-linecap="round" stroke-linejoin="round"/>
<path d="M663.764 458.078L680.153 474.335" stroke="white" stroke-width="1.1533" stroke-miterlimit="10" stroke-linecap="round" stroke-linejoin="round"/>
<path d="M708.57 487.024L754.038 532.491" stroke="white" stroke-width="1.1533" stroke-miterlimit="10" stroke-linecap="round" stroke-linejoin="round"/>
<path d="M662.178 440.631L695.75 474.203" stroke="white" stroke-width="1.1533" stroke-miterlimit="10" stroke-linecap="round" stroke-linejoin="round"/>
<path d="M745.975 508.7L769.766 532.359" stroke="white" stroke-width="1.1533" stroke-miterlimit="10" stroke-linecap="round" stroke-linejoin="round"/>
<path d="M682.664 445.257L728.793 491.385" stroke="white" stroke-width="1.1533" stroke-miterlimit="10" stroke-linecap="round" stroke-linejoin="round"/>
<path d="M722.977 469.841L755.095 501.959" stroke="white" stroke-width="1.1533" stroke-miterlimit="10" stroke-linecap="round" stroke-linejoin="round"/>
<path d="M686.498 433.229L710.421 457.285" stroke="white" stroke-width="1.1533" stroke-miterlimit="10" stroke-linecap="round" stroke-linejoin="round"/>
<path d="M751.526 482.53L763.951 494.954" stroke="white" stroke-width="1.1533" stroke-miterlimit="10" stroke-linecap="round" stroke-linejoin="round"/>
<path d="M705.663 436.666L737.252 468.255" stroke="white" stroke-width="1.1533" stroke-miterlimit="10" stroke-linecap="round" stroke-linejoin="round"/>
<path d="M745.05 460.193L752.716 467.859" stroke="white" stroke-width="1.1533" stroke-miterlimit="10" stroke-linecap="round" stroke-linejoin="round"/>
<path d="M731.568 446.843L736.855 452.13" stroke="white" stroke-width="1.1533" stroke-miterlimit="10" stroke-linecap="round" stroke-linejoin="round"/>
<path d="M265.13 1067.13L275.175 1077.18" stroke="white" stroke-width="1.1533" stroke-miterlimit="10" stroke-linecap="round" stroke-linejoin="round"/>
<path d="M282.048 1068.32L319.982 1106.12" stroke="white" stroke-width="1.1533" stroke-miterlimit="10" stroke-linecap="round" stroke-linejoin="round"/>
<path d="M262.751 1049.02L270.549 1056.69" stroke="white" stroke-width="1.1533" stroke-miterlimit="10" stroke-linecap="round" stroke-linejoin="round"/>
<path d="M309.276 1079.69L342.583 1112.99" stroke="white" stroke-width="1.1533" stroke-miterlimit="10" stroke-linecap="round" stroke-linejoin="round"/>
<path d="M259.05 1029.46L294.605 1065.02" stroke="white" stroke-width="1.1533" stroke-miterlimit="10" stroke-linecap="round" stroke-linejoin="round"/>
<path d="M286.938 1041.49L345.623 1100.31" stroke="white" stroke-width="1.1533" stroke-miterlimit="10" stroke-linecap="round" stroke-linejoin="round"/>
<path d="M262.619 1017.17L275.043 1029.59" stroke="white" stroke-width="1.1533" stroke-miterlimit="10" stroke-linecap="round" stroke-linejoin="round"/>
<path d="M335.446 1074.14L349.457 1088.28" stroke="white" stroke-width="1.1533" stroke-miterlimit="10" stroke-linecap="round" stroke-linejoin="round"/>
<path d="M248.476 987.298L320.511 1059.33" stroke="white" stroke-width="1.1533" stroke-miterlimit="10" stroke-linecap="round" stroke-linejoin="round"/>
<path d="M306.236 1029.33L376.684 1099.65" stroke="white" stroke-width="1.1533" stroke-miterlimit="10" stroke-linecap="round" stroke-linejoin="round"/>
<path d="M275.175 998.136L291.565 1014.53" stroke="white" stroke-width="1.1533" stroke-miterlimit="10" stroke-linecap="round" stroke-linejoin="round"/>
<path d="M319.982 1027.08L365.449 1072.55" stroke="white" stroke-width="1.1533" stroke-miterlimit="10" stroke-linecap="round" stroke-linejoin="round"/>
<path d="M273.589 980.69L307.161 1014.26" stroke="white" stroke-width="1.1533" stroke-miterlimit="10" stroke-linecap="round" stroke-linejoin="round"/>
<path d="M357.387 1048.76L381.178 1072.55" stroke="white" stroke-width="1.1533" stroke-miterlimit="10" stroke-linecap="round" stroke-linejoin="round"/>
<path d="M294.076 985.448L340.204 1031.58" stroke="white" stroke-width="1.1533" stroke-miterlimit="10" stroke-linecap="round" stroke-linejoin="round"/>
<path d="M334.389 1010.03L366.507 1042.02" stroke="white" stroke-width="1.1533" stroke-miterlimit="10" stroke-linecap="round" stroke-linejoin="round"/>
<path d="M297.909 973.42L321.832 997.476" stroke="white" stroke-width="1.1533" stroke-miterlimit="10" stroke-linecap="round" stroke-linejoin="round"/>
<path d="M362.938 1022.72L375.362 1035.14" stroke="white" stroke-width="1.1533" stroke-miterlimit="10" stroke-linecap="round" stroke-linejoin="round"/>
<path d="M317.074 976.857L348.663 1008.45" stroke="white" stroke-width="1.1533" stroke-miterlimit="10" stroke-linecap="round" stroke-linejoin="round"/>
<path d="M356.462 1000.38L364.128 1008.05" stroke="white" stroke-width="1.1533" stroke-miterlimit="10" stroke-linecap="round" stroke-linejoin="round"/>
<path d="M342.98 986.902L348.267 992.189" stroke="white" stroke-width="1.1533" stroke-miterlimit="10" stroke-linecap="round" stroke-linejoin="round"/>
<path d="M305.046 379.171L310.465 384.59" stroke="white" stroke-width="1.1533" stroke-miterlimit="10" stroke-linecap="round" stroke-linejoin="round"/>
<path d="M286.278 360.402L296.323 370.447" stroke="white" stroke-width="1.1533" stroke-miterlimit="10" stroke-linecap="round" stroke-linejoin="round"/>
<path d="M303.196 361.592L341.129 399.525" stroke="white" stroke-width="1.1533" stroke-miterlimit="10" stroke-linecap="round" stroke-linejoin="round"/>
<path d="M283.899 342.294L291.697 349.96" stroke="white" stroke-width="1.1533" stroke-miterlimit="10" stroke-linecap="round" stroke-linejoin="round"/>
<path d="M330.424 372.958L363.731 406.266" stroke="white" stroke-width="1.1533" stroke-miterlimit="10" stroke-linecap="round" stroke-linejoin="round"/>
<path d="M280.198 322.733L315.753 358.287" stroke="white" stroke-width="1.1533" stroke-miterlimit="10" stroke-linecap="round" stroke-linejoin="round"/>
<path d="M308.086 334.76L366.771 393.577" stroke="white" stroke-width="1.1533" stroke-miterlimit="10" stroke-linecap="round" stroke-linejoin="round"/>
<path d="M283.767 310.573L296.191 322.997" stroke="white" stroke-width="1.1533" stroke-miterlimit="10" stroke-linecap="round" stroke-linejoin="round"/>
<path d="M356.594 367.539L370.604 381.682" stroke="white" stroke-width="1.1533" stroke-miterlimit="10" stroke-linecap="round" stroke-linejoin="round"/>
<path d="M269.624 280.57L341.658 352.604" stroke="white" stroke-width="1.1533" stroke-miterlimit="10" stroke-linecap="round" stroke-linejoin="round"/>
<path d="M327.384 322.601L397.832 392.917" stroke="white" stroke-width="1.1533" stroke-miterlimit="10" stroke-linecap="round" stroke-linejoin="round"/>
<path d="M296.323 291.54L312.712 307.797" stroke="white" stroke-width="1.1533" stroke-miterlimit="10" stroke-linecap="round" stroke-linejoin="round"/>
<path d="M341.129 320.486L386.597 365.953" stroke="white" stroke-width="1.1533" stroke-miterlimit="10" stroke-linecap="round" stroke-linejoin="round"/>
<path d="M294.737 274.093L328.309 307.665" stroke="white" stroke-width="1.1533" stroke-miterlimit="10" stroke-linecap="round" stroke-linejoin="round"/>
<path d="M378.534 342.162L402.326 365.821" stroke="white" stroke-width="1.1533" stroke-miterlimit="10" stroke-linecap="round" stroke-linejoin="round"/>
<path d="M315.224 278.719L361.352 324.848" stroke="white" stroke-width="1.1533" stroke-miterlimit="10" stroke-linecap="round" stroke-linejoin="round"/>
<path d="M355.537 303.303L387.655 335.421" stroke="white" stroke-width="1.1533" stroke-miterlimit="10" stroke-linecap="round" stroke-linejoin="round"/>
<path d="M319.056 266.691L342.98 290.747" stroke="white" stroke-width="1.1533" stroke-miterlimit="10" stroke-linecap="round" stroke-linejoin="round"/>
<path d="M384.086 315.992L396.51 328.416" stroke="white" stroke-width="1.1533" stroke-miterlimit="10" stroke-linecap="round" stroke-linejoin="round"/>
<path d="M338.221 270.128L369.811 301.717" stroke="white" stroke-width="1.1533" stroke-miterlimit="10" stroke-linecap="round" stroke-linejoin="round"/>
<path d="M377.609 293.655L385.275 301.321" stroke="white" stroke-width="1.1533" stroke-miterlimit="10" stroke-linecap="round" stroke-linejoin="round"/>
<path d="M364.128 280.305L369.415 285.592" stroke="white" stroke-width="1.1533" stroke-miterlimit="10" stroke-linecap="round" stroke-linejoin="round"/>
<path d="M189.131 519.803C196.797 527.469 196.797 539.893 189.131 547.427C181.465 555.093 169.041 555.093 161.507 547.427C153.841 539.761 153.841 527.336 161.507 519.803C169.041 512.137 181.465 512.137 189.131 519.803Z" stroke="white" stroke-width="2" stroke-miterlimit="10"/>
<path d="M600.585 546.237C608.251 553.903 608.251 566.327 600.585 573.861C592.919 581.527 580.495 581.527 572.961 573.861C565.295 566.195 565.295 553.771 572.961 546.237C580.627 538.571 593.051 538.571 600.585 546.237Z" stroke="white" stroke-width="2" stroke-miterlimit="10"/>
<path d="M125.556 972.891C130.71 978.046 130.71 986.373 125.556 991.528C120.401 996.683 112.074 996.683 106.919 991.528C101.765 986.373 101.765 978.046 106.919 972.891C111.942 967.605 120.401 967.605 125.556 972.891Z" stroke="white" stroke-width="2" stroke-miterlimit="10"/>
<path d="M296.455 868.607C297.513 867.55 299.099 867.55 300.156 868.607C301.214 869.664 301.214 871.25 300.156 872.308C299.099 873.365 297.513 873.365 296.455 872.308C295.53 871.25 295.53 869.532 296.455 868.607Z" fill="white"/>
<path d="M267.774 839.793C268.831 838.736 270.417 838.736 271.475 839.793C272.532 840.851 272.532 842.437 271.475 843.494C270.417 844.551 268.831 844.551 267.774 843.494C266.716 842.437 266.716 840.851 267.774 839.793Z" fill="white"/>
<path d="M240.943 815.606C242.402 815.606 243.586 814.422 243.586 812.962C243.586 811.502 242.402 810.319 240.943 810.319C239.483 810.319 238.299 811.502 238.299 812.962C238.299 814.422 239.483 815.606 240.943 815.606Z" fill="white"/>
<path d="M212.129 786.792C213.589 786.792 214.772 785.608 214.772 784.148C214.772 782.688 213.589 781.505 212.129 781.505C210.669 781.505 209.485 782.688 209.485 784.148C209.485 785.608 210.669 786.792 212.129 786.792Z" fill="white"/>
<path d="M183.447 758.11C184.907 758.11 186.091 756.927 186.091 755.467C186.091 754.007 184.907 752.823 183.447 752.823C181.987 752.823 180.804 754.007 180.804 755.467C180.804 756.927 181.987 758.11 183.447 758.11Z" fill="white"/>
<path d="M324.079 847.327C325.539 847.327 326.722 846.144 326.722 844.684C326.722 843.224 325.539 842.04 324.079 842.04C322.619 842.04 321.436 843.224 321.436 844.684C321.436 846.144 322.619 847.327 324.079 847.327Z" fill="white"/>
<path d="M295.266 818.646C296.725 818.646 297.909 817.462 297.909 816.002C297.909 814.542 296.725 813.359 295.266 813.359C293.806 813.359 292.622 814.542 292.622 816.002C292.622 817.462 293.806 818.646 295.266 818.646Z" fill="white"/>
<path d="M264.733 785.47C265.791 784.413 267.377 784.413 268.434 785.47C269.492 786.528 269.492 788.114 268.434 789.171C267.377 790.228 265.791 790.228 264.733 789.171C263.676 788.114 263.676 786.395 264.733 785.47Z" fill="white"/>
<path d="M236.052 756.656C237.11 755.599 238.696 755.599 239.753 756.656C240.811 757.714 240.811 759.3 239.753 760.357C238.696 761.415 237.11 761.415 236.052 760.357C234.995 759.3 234.995 757.714 236.052 756.656Z" fill="white"/>
<path d="M207.238 727.975C208.296 726.918 209.882 726.918 210.939 727.975C211.997 729.032 211.997 730.618 210.939 731.676C209.882 732.733 208.296 732.733 207.238 731.676C206.181 730.618 206.181 728.9 207.238 727.975Z" fill="white"/>
<path d="M349.721 821.686C351.181 821.686 352.365 820.502 352.365 819.042C352.365 817.582 351.181 816.399 349.721 816.399C348.261 816.399 347.078 817.582 347.078 819.042C347.078 820.502 348.261 821.686 349.721 821.686Z" fill="white"/>
<path d="M319.189 788.51C320.246 787.453 321.832 787.453 322.89 788.51C323.947 789.568 323.947 791.154 322.89 792.211C321.832 793.268 320.246 793.268 319.189 792.211C318.132 791.154 318.132 789.435 319.189 788.51Z" fill="white"/>
<path d="M290.375 759.696C291.433 758.639 293.019 758.639 294.076 759.696C295.134 760.754 295.134 762.34 294.076 763.397C293.019 764.455 291.433 764.455 290.375 763.397C289.45 762.34 289.45 760.754 290.375 759.696Z" fill="white"/>
<path d="M261.694 731.015C262.751 729.958 264.337 729.958 265.395 731.015C266.452 732.072 266.452 733.658 265.395 734.716C264.337 735.773 262.751 735.773 261.694 734.716C260.637 733.658 260.637 732.072 261.694 731.015Z" fill="white"/>
<path d="M232.88 702.201C233.938 701.144 235.524 701.144 236.581 702.201C237.638 703.259 237.638 704.845 236.581 705.902C235.524 706.959 233.938 706.959 232.88 705.902C231.955 704.977 231.955 703.259 232.88 702.201Z" fill="white"/>
<path d="M373.512 791.55C374.57 790.493 376.156 790.493 377.213 791.55C378.271 792.608 378.271 794.194 377.213 795.251C376.156 796.308 374.57 796.308 373.512 795.251C372.587 794.194 372.587 792.475 373.512 791.55Z" fill="white"/>
<path d="M344.83 762.736C345.888 761.679 347.474 761.679 348.531 762.736C349.589 763.794 349.589 765.38 348.531 766.437C347.474 767.495 345.888 767.495 344.83 766.437C343.773 765.512 343.773 763.794 344.83 762.736Z" fill="white"/>
<path d="M317.868 738.549C319.328 738.549 320.511 737.365 320.511 735.905C320.511 734.445 319.328 733.262 317.868 733.262C316.408 733.262 315.224 734.445 315.224 735.905C315.224 737.365 316.408 738.549 317.868 738.549Z" fill="white"/>
<path d="M289.186 709.735C290.646 709.735 291.829 708.552 291.829 707.092C291.829 705.632 290.646 704.448 289.186 704.448C287.726 704.448 286.542 705.632 286.542 707.092C286.542 708.552 287.726 709.735 289.186 709.735Z" fill="white"/>
<path d="M260.504 681.054C261.964 681.054 263.148 679.87 263.148 678.41C263.148 676.95 261.964 675.767 260.504 675.767C259.044 675.767 257.861 676.95 257.861 678.41C257.861 679.87 259.044 681.054 260.504 681.054Z" fill="white"/>
<path d="M401.004 770.27C402.464 770.27 403.648 769.087 403.648 767.627C403.648 766.167 402.464 764.983 401.004 764.983C399.544 764.983 398.361 766.167 398.361 767.627C398.361 769.087 399.544 770.27 401.004 770.27Z" fill="white"/>
<path d="M372.322 741.589C373.782 741.589 374.966 740.405 374.966 738.945C374.966 737.485 373.782 736.302 372.322 736.302C370.862 736.302 369.679 737.485 369.679 738.945C369.679 740.405 370.862 741.589 372.322 741.589Z" fill="white"/>
<path d="M341.79 708.413C342.848 707.356 344.434 707.356 345.491 708.413C346.549 709.471 346.549 711.057 345.491 712.114C344.434 713.172 342.848 713.172 341.79 712.114C340.733 711.057 340.733 709.339 341.79 708.413Z" fill="white"/>
<path d="M312.977 679.6C314.034 678.542 315.62 678.542 316.678 679.6C317.735 680.657 317.735 682.243 316.678 683.301C315.62 684.358 314.034 684.358 312.977 683.301C312.052 682.243 312.052 680.657 312.977 679.6Z" fill="white"/>
<path d="M284.295 650.918C285.353 649.861 286.939 649.861 287.996 650.918C289.053 651.976 289.053 653.562 287.996 654.619C286.939 655.676 285.353 655.676 284.295 654.619C283.238 653.562 283.238 651.976 284.295 650.918Z" fill="white"/>
<path d="M426.778 744.629C428.238 744.629 429.421 743.445 429.421 741.985C429.421 740.525 428.238 739.342 426.778 739.342C425.318 739.342 424.135 740.525 424.135 741.985C424.135 743.445 425.318 744.629 426.778 744.629Z" fill="white"/>
<path d="M396.114 711.453C397.171 710.396 398.757 710.396 399.814 711.453C400.872 712.511 400.872 714.097 399.814 715.154C398.757 716.212 397.171 716.212 396.114 715.154C395.188 714.097 395.188 712.511 396.114 711.453Z" fill="white"/>
<path d="M367.432 682.64C368.49 681.582 370.076 681.582 371.133 682.64C372.19 683.697 372.19 685.283 371.133 686.341C370.076 687.398 368.49 687.398 367.432 686.341C366.375 685.415 366.375 683.697 367.432 682.64Z" fill="white"/>
<path d="M340.601 658.452C342.061 658.452 343.244 657.268 343.244 655.808C343.244 654.349 342.061 653.165 340.601 653.165C339.141 653.165 337.958 654.349 337.958 655.808C337.958 657.268 339.141 658.452 340.601 658.452Z" fill="white"/>
<path d="M309.937 625.277C310.994 624.219 312.58 624.219 313.638 625.277C314.695 626.334 314.695 627.92 313.638 628.977C312.58 630.035 310.994 630.035 309.937 628.977C309.012 627.92 309.012 626.202 309.937 625.277Z" fill="white"/>
<path d="M870.879 788.51C872.339 788.51 873.522 787.327 873.522 785.867C873.522 784.407 872.339 783.223 870.879 783.223C869.419 783.223 868.235 784.407 868.235 785.867C868.235 787.327 869.419 788.51 870.879 788.51Z" fill="white"/>
<path d="M840.347 755.203C841.404 754.145 842.99 754.145 844.048 755.203C845.105 756.26 845.105 757.846 844.048 758.903C842.99 759.961 841.404 759.961 840.347 758.903C839.289 757.846 839.289 756.26 840.347 755.203Z" fill="white"/>
<path d="M811.665 726.521C812.723 725.464 814.309 725.464 815.366 726.521C816.424 727.578 816.424 729.164 815.366 730.222C814.309 731.279 812.723 731.279 811.665 730.222C810.608 729.164 810.608 727.446 811.665 726.521Z" fill="white"/>
<path d="M782.852 697.707C783.909 696.65 785.495 696.65 786.552 697.707C787.61 698.765 787.61 700.351 786.552 701.408C785.495 702.466 783.909 702.466 782.852 701.408C781.794 700.351 781.794 698.765 782.852 697.707Z" fill="white"/>
<path d="M756.02 673.52C757.48 673.52 758.664 672.336 758.664 670.876C758.664 669.416 757.48 668.233 756.02 668.233C754.56 668.233 753.377 669.416 753.377 670.876C753.377 672.336 754.56 673.52 756.02 673.52Z" fill="white"/>
<path d="M894.802 758.242C895.859 757.185 897.445 757.185 898.503 758.242C899.56 759.3 899.56 760.886 898.503 761.943C897.445 763.001 895.859 763.001 894.802 761.943C893.744 760.886 893.744 759.3 894.802 758.242Z" fill="white"/>
<path d="M865.988 729.561C867.046 728.504 868.632 728.504 869.689 729.561C870.747 730.618 870.747 732.204 869.689 733.262C868.632 734.319 867.046 734.319 865.988 733.262C865.063 732.204 865.063 730.618 865.988 729.561Z" fill="white"/>
<path d="M839.157 705.241C840.617 705.241 841.801 704.058 841.801 702.598C841.801 701.138 840.617 699.954 839.157 699.954C837.697 699.954 836.514 701.138 836.514 702.598C836.514 704.058 837.697 705.241 839.157 705.241Z" fill="white"/>
<path d="M810.343 676.56C811.803 676.56 812.987 675.376 812.987 673.916C812.987 672.456 811.803 671.273 810.343 671.273C808.883 671.273 807.7 672.456 807.7 673.916C807.7 675.376 808.883 676.56 810.343 676.56Z" fill="white"/>
<path d="M781.662 647.878C783.122 647.878 784.305 646.695 784.305 645.235C784.305 643.775 783.122 642.591 781.662 642.591C780.202 642.591 779.018 643.775 779.018 645.235C779.018 646.695 780.202 647.878 781.662 647.878Z" fill="white"/>
<path d="M922.294 737.095C923.754 737.095 924.938 735.911 924.938 734.451C924.938 732.992 923.754 731.808 922.294 731.808C920.834 731.808 919.651 732.992 919.651 734.451C919.651 735.911 920.834 737.095 922.294 737.095Z" fill="white"/>
<path d="M891.762 703.919C892.82 702.862 894.406 702.862 895.463 703.919C896.52 704.977 896.52 706.563 895.463 707.62C894.406 708.678 892.82 708.678 891.762 707.62C890.705 706.563 890.705 704.845 891.762 703.919Z" fill="white"/>
<path d="M864.799 679.6C866.259 679.6 867.442 678.416 867.442 676.956C867.442 675.496 866.259 674.313 864.799 674.313C863.339 674.313 862.155 675.496 862.155 676.956C862.155 678.416 863.339 679.6 864.799 679.6Z" fill="white"/>
<path d="M834.267 646.424C835.325 645.367 836.911 645.367 837.968 646.424C839.025 647.482 839.025 649.068 837.968 650.125C836.911 651.182 835.325 651.182 834.267 650.125C833.21 649.068 833.21 647.482 834.267 646.424Z" fill="white"/>
<path d="M805.453 617.611C806.511 616.553 808.097 616.553 809.154 617.611C810.211 618.668 810.211 620.254 809.154 621.311C808.097 622.369 806.511 622.369 805.453 621.311C804.528 620.386 804.528 618.668 805.453 617.611Z" fill="white"/>
<path d="M947.936 711.453C949.396 711.453 950.579 710.27 950.579 708.81C950.579 707.35 949.396 706.166 947.936 706.166C946.476 706.166 945.292 707.35 945.292 708.81C945.292 710.27 946.476 711.453 947.936 711.453Z" fill="white"/>
<path d="M917.404 678.146C918.461 677.088 920.047 677.088 921.104 678.146C922.162 679.203 922.162 680.789 921.104 681.847C920.047 682.904 918.461 682.904 917.404 681.847C916.346 680.789 916.346 679.203 917.404 678.146Z" fill="white"/>
<path d="M890.44 653.958C891.9 653.958 893.084 652.775 893.084 651.315C893.084 649.855 891.9 648.671 890.44 648.671C888.98 648.671 887.797 649.855 887.797 651.315C887.797 652.775 888.98 653.958 890.44 653.958Z" fill="white"/>
<path d="M859.909 620.783C860.966 619.725 862.552 619.725 863.609 620.783C864.667 621.84 864.667 623.426 863.609 624.484C862.552 625.541 860.966 625.541 859.909 624.484C858.851 623.426 858.851 621.708 859.909 620.783Z" fill="white"/>
<path d="M831.227 591.969C832.284 590.912 833.87 590.912 834.928 591.969C835.985 593.026 835.985 594.612 834.928 595.67C833.87 596.727 832.284 596.727 831.227 595.67C830.169 594.612 830.169 593.026 831.227 591.969Z" fill="white"/>
<path d="M971.727 681.318C972.784 680.261 974.37 680.261 975.427 681.318C976.485 682.375 976.485 683.961 975.427 685.019C974.37 686.076 972.784 686.076 971.727 685.019C970.801 683.961 970.801 682.243 971.727 681.318Z" fill="white"/>
<path d="M943.045 652.504C944.102 651.447 945.688 651.447 946.746 652.504C947.803 653.562 947.803 655.148 946.746 656.205C945.688 657.262 944.102 657.262 943.045 656.205C941.988 655.148 941.988 653.562 943.045 652.504Z" fill="white"/>
<path d="M916.214 628.317C917.674 628.317 918.857 627.133 918.857 625.673C918.857 624.213 917.674 623.03 916.214 623.03C914.754 623.03 913.571 624.213 913.571 625.673C913.571 627.133 914.754 628.317 916.214 628.317Z" fill="white"/>
<path d="M887.4 599.503C888.86 599.503 890.044 598.319 890.044 596.859C890.044 595.4 888.86 594.216 887.4 594.216C885.94 594.216 884.757 595.4 884.757 596.859C884.757 598.319 885.94 599.503 887.4 599.503Z" fill="white"/>
<path d="M858.719 570.821C860.179 570.821 861.362 569.638 861.362 568.178C861.362 566.718 860.179 565.534 858.719 565.534C857.259 565.534 856.075 566.718 856.075 568.178C856.075 569.638 857.259 570.821 858.719 570.821Z" fill="white"/>
<path d="M999.351 660.038C1000.81 660.038 1001.99 658.855 1001.99 657.395C1001.99 655.935 1000.81 654.751 999.351 654.751C997.891 654.751 996.707 655.935 996.707 657.395C996.707 658.855 997.891 660.038 999.351 660.038Z" fill="white"/>
<path d="M968.687 626.863C969.744 625.805 971.33 625.805 972.387 626.863C973.445 627.92 973.445 629.506 972.387 630.564C971.33 631.621 969.744 631.621 968.687 630.564C967.761 629.506 967.761 627.788 968.687 626.863Z" fill="white"/>
<path d="M940.005 598.049C941.062 596.992 942.648 596.992 943.706 598.049C944.763 599.106 944.763 600.692 943.706 601.75C942.648 602.807 941.062 602.807 940.005 601.75C938.948 600.825 938.948 599.106 940.005 598.049Z" fill="white"/>
<path d="M911.324 569.367C912.381 568.31 913.967 568.31 915.024 569.367C916.082 570.425 916.082 572.011 915.024 573.068C913.967 574.126 912.381 574.126 911.324 573.068C910.266 572.011 910.266 570.425 911.324 569.367Z" fill="white"/>
<path d="M884.36 545.048C885.82 545.048 887.004 543.864 887.004 542.404C887.004 540.944 885.82 539.761 884.36 539.761C882.9 539.761 881.717 540.944 881.717 542.404C881.717 543.864 882.9 545.048 884.36 545.048Z" fill="white"/>
<path d="M627.68 431.379C641.426 444.993 641.426 467.198 627.68 480.812L577.851 431.379C591.597 417.765 613.934 417.765 627.68 431.379Z" fill="#FFAF00"/>
<path d="M600.717 503.81C586.971 490.196 586.971 467.991 600.717 454.377L650.546 503.81C636.8 517.423 614.463 517.423 600.717 503.81Z" stroke="black" stroke-width="2.5152" stroke-miterlimit="10"/>
<path d="M137.848 661.36C151.594 674.974 151.594 697.179 137.848 710.793L88.0183 661.36C101.764 647.746 124.102 647.746 137.848 661.36Z" fill="#FFAF00"/>
<path d="M110.752 733.791C97.0064 720.177 97.0064 697.972 110.752 684.358L160.582 733.791C146.968 747.405 124.631 747.405 110.752 733.791Z" stroke="black" stroke-width="2.5152" stroke-miterlimit="10"/>
<path d="M691.784 808.336C713.593 830.145 713.593 865.435 691.784 887.243L612.745 808.204C634.685 786.528 669.975 786.528 691.784 808.336Z" fill="#FFAF00"/>
<path d="M689.538 823.933C711.346 845.741 711.346 881.031 689.538 902.84L610.498 823.8C632.307 802.124 667.729 802.124 689.538 823.933Z" stroke="#010101" stroke-width="2" stroke-miterlimit="10" stroke-linecap="round" stroke-linejoin="round"/>
<path d="M-84.3352 872.308L16.6449 973.288" stroke="#FFAF00" stroke-width="1.6547" stroke-miterlimit="10" stroke-linecap="round" stroke-linejoin="round"/>
<path d="M-64.6414 869.268L0.519913 934.429" stroke="#010101" stroke-width="1.6547" stroke-miterlimit="10" stroke-linecap="round" stroke-linejoin="round"/>
<path d="M-10.8469 900.329L23.1215 934.429" stroke="#FFAF00" stroke-width="1.6547" stroke-miterlimit="10" stroke-linecap="round" stroke-linejoin="round"/>
<path d="M-43.8904 844.684L2.10581 890.68" stroke="#010101" stroke-width="1.6547" stroke-miterlimit="10" stroke-linecap="round" stroke-linejoin="round"/>
<path d="M-3.04907 862.924L14.9265 880.767" stroke="#FFAF00" stroke-width="1.6547" stroke-miterlimit="10" stroke-linecap="round" stroke-linejoin="round"/>
<path d="M745.579 523.239L750.998 528.79" stroke="#010101" stroke-width="1.1533" stroke-miterlimit="10" stroke-linecap="round" stroke-linejoin="round"/>
<path d="M726.811 504.471L736.856 514.648" stroke="#010101" stroke-width="1.1533" stroke-miterlimit="10" stroke-linecap="round" stroke-linejoin="round"/>
<path d="M743.729 505.792L781.662 543.594" stroke="#010101" stroke-width="1.1533" stroke-miterlimit="10" stroke-linecap="round" stroke-linejoin="round"/>
<path d="M724.432 486.495L732.23 494.161" stroke="#010101" stroke-width="1.1533" stroke-miterlimit="10" stroke-linecap="round" stroke-linejoin="round"/>
<path d="M770.956 517.159L804.264 550.467" stroke="#FFAF00" stroke-width="1.1533" stroke-miterlimit="10" stroke-linecap="round" stroke-linejoin="round"/>
<path d="M720.73 466.934L756.285 502.356" stroke="#FFAF00" stroke-width="1.1533" stroke-miterlimit="10" stroke-linecap="round" stroke-linejoin="round"/>
<path d="M748.619 478.961L807.304 537.646" stroke="#010101" stroke-width="1.1533" stroke-miterlimit="10" stroke-linecap="round" stroke-linejoin="round"/>
<path d="M724.299 454.641L736.723 467.066" stroke="#010101" stroke-width="1.1533" stroke-miterlimit="10" stroke-linecap="round" stroke-linejoin="round"/>
<path d="M797.127 511.608L811.137 525.75" stroke="#010101" stroke-width="1.1533" stroke-miterlimit="10" stroke-linecap="round" stroke-linejoin="round"/>
<path d="M710.157 424.77L782.191 496.805" stroke="#010101" stroke-width="1.1533" stroke-miterlimit="10" stroke-linecap="round" stroke-linejoin="round"/>
<path d="M767.916 466.669L838.364 537.117" stroke="#FFAF00" stroke-width="1.1533" stroke-miterlimit="10" stroke-linecap="round" stroke-linejoin="round"/>
<path d="M736.855 435.609L753.245 451.998" stroke="#FFAF00" stroke-width="1.1533" stroke-miterlimit="10" stroke-linecap="round" stroke-linejoin="round"/>
<path d="M781.662 464.554L827.13 510.022" stroke="#010101" stroke-width="1.1533" stroke-miterlimit="10" stroke-linecap="round" stroke-linejoin="round"/>
<path d="M735.27 418.162L768.841 451.734" stroke="#010101" stroke-width="1.1533" stroke-miterlimit="10" stroke-linecap="round" stroke-linejoin="round"/>
<path d="M819.067 486.231L842.858 510.022" stroke="#FFAF00" stroke-width="1.1533" stroke-miterlimit="10" stroke-linecap="round" stroke-linejoin="round"/>
<path d="M755.756 422.92L801.885 468.916" stroke="#FFAF00" stroke-width="1.1533" stroke-miterlimit="10" stroke-linecap="round" stroke-linejoin="round"/>
<path d="M796.069 447.372L828.187 479.49" stroke="#010101" stroke-width="1.1533" stroke-miterlimit="10" stroke-linecap="round" stroke-linejoin="round"/>
<path d="M759.589 410.892L783.512 434.815" stroke="#010101" stroke-width="1.1533" stroke-miterlimit="10" stroke-linecap="round" stroke-linejoin="round"/>
<path d="M824.619 460.06L837.043 472.617" stroke="#FFAF00" stroke-width="1.1533" stroke-miterlimit="10" stroke-linecap="round" stroke-linejoin="round"/>
<path d="M778.754 414.196L810.344 445.918" stroke="#FFAF00" stroke-width="1.1533" stroke-miterlimit="10" stroke-linecap="round" stroke-linejoin="round"/>
<path d="M818.142 437.855L825.808 445.522" stroke="#010101" stroke-width="1.1533" stroke-miterlimit="10" stroke-linecap="round" stroke-linejoin="round"/>
<path d="M804.66 424.374L809.947 429.661" stroke="#010101" stroke-width="1.1533" stroke-miterlimit="10" stroke-linecap="round" stroke-linejoin="round"/>
<path d="M393.074 568.046L337.033 512.004C336.107 511.079 336.107 509.625 337.033 508.832L393.074 452.791C393.999 451.866 395.453 451.866 396.246 452.791L452.287 508.832C453.213 509.757 453.213 511.211 452.287 512.004L396.246 568.046C395.321 568.971 393.867 568.971 393.074 568.046Z" stroke="#FFAF00" stroke-width="1.7707" stroke-miterlimit="10"/>
<path d="M395.849 435.476C396.579 435.476 397.171 434.885 397.171 434.155C397.171 433.425 396.579 432.833 395.849 432.833C395.119 432.833 394.528 433.425 394.528 434.155C394.528 434.885 395.119 435.476 395.849 435.476Z" fill="#010101"/>
<path d="M411.314 449.751C410.785 450.28 409.992 450.28 409.463 449.751C408.934 449.222 408.934 448.429 409.463 447.901C409.992 447.372 410.785 447.372 411.314 447.901C411.842 448.297 411.842 449.222 411.314 449.751Z" fill="#010101"/>
<path d="M425.853 464.29C425.324 464.819 424.531 464.819 424.002 464.29C423.474 463.761 423.474 462.968 424.002 462.44C424.531 461.911 425.324 461.911 425.853 462.44C426.381 462.836 426.381 463.761 425.853 464.29Z" fill="#010101"/>
<path d="M440.392 478.829C439.863 479.358 439.07 479.358 438.541 478.829C438.013 478.3 438.013 477.507 438.541 476.979C439.07 476.45 439.863 476.45 440.392 476.979C440.92 477.375 440.92 478.3 440.392 478.829Z" fill="#010101"/>
<path d="M454.006 493.765C454.736 493.765 455.327 493.173 455.327 492.443C455.327 491.713 454.736 491.121 454.006 491.121C453.276 491.121 452.684 491.713 452.684 492.443C452.684 493.173 453.276 493.765 454.006 493.765Z" fill="#010101"/>
<path d="M383.69 448.165C383.161 448.694 382.368 448.694 381.839 448.165C381.31 447.636 381.31 446.843 381.839 446.314C382.368 445.786 383.161 445.786 383.69 446.314C384.218 446.843 384.218 447.636 383.69 448.165Z" fill="#010101"/>
<path d="M397.303 463.1C398.033 463.1 398.625 462.509 398.625 461.779C398.625 461.049 398.033 460.457 397.303 460.457C396.573 460.457 395.981 461.049 395.981 461.779C395.981 462.509 396.573 463.1 397.303 463.1Z" fill="#010101"/>
<path d="M411.842 477.639C412.572 477.639 413.164 477.048 413.164 476.318C413.164 475.588 412.572 474.996 411.842 474.996C411.112 474.996 410.521 475.588 410.521 476.318C410.521 477.048 411.112 477.639 411.842 477.639Z" fill="#010101"/>
<path d="M426.381 492.178C427.111 492.178 427.703 491.587 427.703 490.857C427.703 490.127 427.111 489.535 426.381 489.535C425.651 489.535 425.06 490.127 425.06 490.857C425.06 491.587 425.651 492.178 426.381 492.178Z" fill="#010101"/>
<path d="M441.053 506.717C441.783 506.717 442.374 506.126 442.374 505.396C442.374 504.666 441.783 504.074 441.053 504.074C440.323 504.074 439.731 504.666 439.731 505.396C439.731 506.126 440.323 506.717 441.053 506.717Z" fill="#010101"/>
<path d="M370.736 461.118C370.208 461.646 369.415 461.646 368.886 461.118C368.357 460.589 368.357 459.796 368.886 459.267C369.415 458.739 370.208 458.739 370.736 459.267C371.265 459.796 371.265 460.589 370.736 461.118Z" fill="#010101"/>
<path d="M384.35 476.053C385.08 476.053 385.672 475.462 385.672 474.732C385.672 474.002 385.08 473.41 384.35 473.41C383.62 473.41 383.029 474.002 383.029 474.732C383.029 475.462 383.62 476.053 384.35 476.053Z" fill="#010101"/>
<path d="M398.889 490.592C399.619 490.592 400.211 490.001 400.211 489.271C400.211 488.541 399.619 487.949 398.889 487.949C398.159 487.949 397.568 488.541 397.568 489.271C397.568 490.001 398.159 490.592 398.889 490.592Z" fill="#010101"/>
<path d="M413.428 505.131C414.158 505.131 414.75 504.54 414.75 503.81C414.75 503.08 414.158 502.488 413.428 502.488C412.698 502.488 412.107 503.08 412.107 503.81C412.107 504.54 412.698 505.131 413.428 505.131Z" fill="#010101"/>
<path d="M428.893 519.274C428.364 519.803 427.571 519.803 427.042 519.274C426.514 518.745 426.514 517.952 427.042 517.423C427.571 516.895 428.364 516.895 428.893 517.423C429.421 517.952 429.421 518.745 428.893 519.274Z" fill="#010101"/>
<path d="M357.784 474.071C357.255 474.599 356.462 474.599 355.933 474.071C355.404 473.542 355.404 472.749 355.933 472.22C356.462 471.692 357.255 471.692 357.784 472.22C358.312 472.749 358.312 473.674 357.784 474.071Z" fill="#010101"/>
<path d="M372.323 488.742C371.794 489.271 371.001 489.271 370.472 488.742C369.944 488.213 369.944 487.42 370.472 486.892C371.001 486.363 371.794 486.363 372.323 486.892C372.851 487.288 372.851 488.213 372.323 488.742Z" fill="#010101"/>
<path d="M385.936 503.678C386.666 503.678 387.258 503.086 387.258 502.356C387.258 501.626 386.666 501.034 385.936 501.034C385.207 501.034 384.615 501.626 384.615 502.356C384.615 503.086 385.207 503.678 385.936 503.678Z" fill="#010101"/>
<path d="M401.401 517.82C400.872 518.349 400.079 518.349 399.55 517.82C399.022 517.291 399.022 516.498 399.55 515.97C400.079 515.441 400.872 515.441 401.401 515.97C401.929 516.366 401.929 517.291 401.401 517.82Z" fill="#010101"/>
<path d="M415.94 532.359C415.411 532.888 414.618 532.888 414.089 532.359C413.561 531.83 413.561 531.037 414.089 530.509C414.618 529.98 415.411 529.98 415.94 530.509C416.469 531.037 416.469 531.83 415.94 532.359Z" fill="#010101"/>
<path d="M344.698 487.156C344.17 487.685 343.377 487.685 342.848 487.156C342.319 486.627 342.319 485.834 342.848 485.306C343.377 484.777 344.17 484.777 344.698 485.306C345.227 485.834 345.227 486.627 344.698 487.156Z" fill="#010101"/>
<path d="M358.312 502.091C359.042 502.091 359.634 501.5 359.634 500.77C359.634 500.04 359.042 499.448 358.312 499.448C357.582 499.448 356.99 500.04 356.99 500.77C356.99 501.5 357.582 502.091 358.312 502.091Z" fill="#010101"/>
<path d="M372.851 516.63C373.581 516.63 374.173 516.039 374.173 515.309C374.173 514.579 373.581 513.987 372.851 513.987C372.121 513.987 371.53 514.579 371.53 515.309C371.53 516.039 372.121 516.63 372.851 516.63Z" fill="#010101"/>
<path d="M387.39 531.17C388.12 531.17 388.712 530.578 388.712 529.848C388.712 529.118 388.12 528.526 387.39 528.526C386.66 528.526 386.069 529.118 386.069 529.848C386.069 530.578 386.66 531.17 387.39 531.17Z" fill="#010101"/>
<path d="M402.987 545.312C402.458 545.841 401.665 545.841 401.136 545.312C400.608 544.783 400.608 543.99 401.136 543.462C401.665 542.933 402.458 542.933 402.987 543.462C403.383 543.99 403.383 544.783 402.987 545.312Z" fill="#010101"/>
<path d="M331.746 500.109C331.217 500.638 330.424 500.638 329.895 500.109C329.366 499.58 329.366 498.787 329.895 498.258C330.424 497.73 331.217 497.73 331.746 498.258C332.274 498.787 332.274 499.58 331.746 500.109Z" fill="#010101"/>
<path d="M345.359 515.044C346.089 515.044 346.681 514.453 346.681 513.723C346.681 512.993 346.089 512.401 345.359 512.401C344.629 512.401 344.038 512.993 344.038 513.723C344.038 514.453 344.629 515.044 345.359 515.044Z" fill="#010101"/>
<path d="M359.899 529.583C360.629 529.583 361.22 528.992 361.22 528.262C361.22 527.532 360.629 526.94 359.899 526.94C359.169 526.94 358.577 527.532 358.577 528.262C358.577 528.992 359.169 529.583 359.899 529.583Z" fill="#010101"/>
<path d="M374.438 544.122C375.168 544.122 375.759 543.531 375.759 542.801C375.759 542.071 375.168 541.479 374.438 541.479C373.708 541.479 373.116 542.071 373.116 542.801C373.116 543.531 373.708 544.122 374.438 544.122Z" fill="#010101"/>
<path d="M389.902 558.265C389.373 558.794 388.58 558.794 388.051 558.265C387.523 557.736 387.523 556.943 388.051 556.415C388.58 555.886 389.373 555.886 389.902 556.415C390.43 556.943 390.43 557.736 389.902 558.265Z" fill="#010101"/>
<path d="M471.055 827.237H538.86C539.918 827.237 540.843 828.162 540.843 829.22V897.024C540.843 898.082 539.918 899.007 538.86 899.007H471.055C469.998 899.007 469.073 898.082 469.073 897.024V829.22C469.205 828.162 469.998 827.237 471.055 827.237Z" stroke="#FFAF00" stroke-width="2" stroke-miterlimit="10"/>
<path d="M547.055 910.902C547.055 910.242 547.583 909.845 548.112 909.845C548.773 909.845 549.17 910.374 549.17 910.902C549.17 911.563 548.641 911.96 548.112 911.96C547.583 912.092 547.055 911.563 547.055 910.902Z" fill="#010101"/>
<path d="M529.476 910.902C529.476 910.242 530.005 909.845 530.533 909.845C531.062 909.845 531.591 910.374 531.591 910.902C531.591 911.563 531.062 911.96 530.533 911.96C530.005 911.96 529.476 911.563 529.476 910.902Z" fill="#010101"/>
<path d="M511.897 910.902C511.897 910.242 512.425 909.845 512.954 909.845C513.615 909.845 514.011 910.374 514.011 910.902C514.011 911.563 513.483 911.96 512.954 911.96C512.425 912.092 511.897 911.563 511.897 910.902Z" fill="#010101"/>
<path d="M494.318 910.902C494.318 910.242 494.847 909.845 495.375 909.845C496.036 909.845 496.433 910.374 496.433 910.902C496.433 911.563 495.904 911.96 495.375 911.96C494.847 912.092 494.318 911.563 494.318 910.902Z" fill="#010101"/>
<path d="M476.739 910.902C476.739 910.242 477.267 909.845 477.796 909.845C478.457 909.845 478.854 910.374 478.854 910.902C478.854 911.563 478.325 911.96 477.796 911.96C477.135 912.092 476.739 911.563 476.739 910.902Z" fill="#010101"/>
<path d="M547.055 895.174C547.055 894.513 547.583 894.116 548.112 894.116C548.773 894.116 549.17 894.645 549.17 895.174C549.17 895.835 548.641 896.231 548.112 896.231C547.583 896.363 547.055 895.835 547.055 895.174Z" fill="#010101"/>
<path d="M529.476 895.174C529.476 894.513 530.005 894.116 530.533 894.116C531.062 894.116 531.591 894.645 531.591 895.174C531.591 895.835 531.062 896.231 530.533 896.231C530.005 896.231 529.476 895.835 529.476 895.174Z" fill="#010101"/>
<path d="M511.897 895.174C511.897 894.513 512.425 894.116 512.954 894.116C513.615 894.116 514.011 894.645 514.011 895.174C514.011 895.835 513.483 896.231 512.954 896.231C512.425 896.363 511.897 895.835 511.897 895.174Z" fill="#010101"/>
<path d="M494.318 895.174C494.318 894.513 494.847 894.116 495.375 894.116C496.036 894.116 496.433 894.645 496.433 895.174C496.433 895.835 495.904 896.231 495.375 896.231C494.847 896.363 494.318 895.835 494.318 895.174Z" fill="#010101"/>
<path d="M476.739 895.174C476.739 894.513 477.267 894.116 477.796 894.116C478.457 894.116 478.854 894.645 478.854 895.174C478.854 895.835 478.325 896.231 477.796 896.231C477.135 896.363 476.739 895.835 476.739 895.174Z" fill="#010101"/>
<path d="M547.055 879.445C547.055 878.784 547.583 878.388 548.112 878.388C548.773 878.388 549.17 878.917 549.17 879.445C549.17 880.106 548.641 880.503 548.112 880.503C547.583 880.635 547.055 880.106 547.055 879.445Z" fill="#010101"/>
<path d="M530.533 880.503C531.117 880.503 531.591 880.029 531.591 879.445C531.591 878.861 531.117 878.388 530.533 878.388C529.949 878.388 529.476 878.861 529.476 879.445C529.476 880.029 529.949 880.503 530.533 880.503Z" fill="#010101"/>
<path d="M512.954 880.503C513.538 880.503 514.011 880.029 514.011 879.445C514.011 878.861 513.538 878.388 512.954 878.388C512.37 878.388 511.897 878.861 511.897 879.445C511.897 880.029 512.37 880.503 512.954 880.503Z" fill="#010101"/>
<path d="M494.318 879.445C494.318 878.784 494.847 878.388 495.375 878.388C496.036 878.388 496.433 878.917 496.433 879.445C496.433 880.106 495.904 880.503 495.375 880.503C494.847 880.635 494.318 880.106 494.318 879.445Z" fill="#010101"/>
<path d="M476.739 879.445C476.739 878.784 477.267 878.388 477.796 878.388C478.457 878.388 478.854 878.917 478.854 879.445C478.854 880.106 478.325 880.503 477.796 880.503C477.135 880.635 476.739 880.106 476.739 879.445Z" fill="#010101"/>
<path d="M547.055 863.849C547.055 863.188 547.583 862.791 548.112 862.791C548.773 862.791 549.17 863.32 549.17 863.849C549.17 864.378 548.641 864.906 548.112 864.906C547.583 864.906 547.055 864.378 547.055 863.849Z" fill="#010101"/>
<path d="M530.533 864.906C531.117 864.906 531.591 864.433 531.591 863.849C531.591 863.265 531.117 862.791 530.533 862.791C529.949 862.791 529.476 863.265 529.476 863.849C529.476 864.433 529.949 864.906 530.533 864.906Z" fill="#010101"/>
<path d="M512.954 864.906C513.538 864.906 514.011 864.433 514.011 863.849C514.011 863.265 513.538 862.791 512.954 862.791C512.37 862.791 511.897 863.265 511.897 863.849C511.897 864.433 512.37 864.906 512.954 864.906Z" fill="#010101"/>
<path d="M494.318 863.849C494.318 863.188 494.847 862.791 495.375 862.791C496.036 862.791 496.433 863.32 496.433 863.849C496.433 864.378 495.904 864.906 495.375 864.906C494.847 864.906 494.318 864.378 494.318 863.849Z" fill="#010101"/>
<path d="M476.739 863.849C476.739 863.188 477.267 862.791 477.796 862.791C478.457 862.791 478.854 863.32 478.854 863.849C478.854 864.378 478.325 864.906 477.796 864.906C477.135 864.906 476.739 864.378 476.739 863.849Z" fill="#010101"/>
<path d="M547.055 848.12C547.055 847.459 547.583 847.063 548.112 847.063C548.773 847.063 549.17 847.592 549.17 848.12C549.17 848.649 548.641 849.178 548.112 849.178C547.583 849.178 547.055 848.649 547.055 848.12Z" fill="#010101"/>
<path d="M530.533 849.178C531.117 849.178 531.591 848.704 531.591 848.12C531.591 847.536 531.117 847.063 530.533 847.063C529.949 847.063 529.476 847.536 529.476 848.12C529.476 848.704 529.949 849.178 530.533 849.178Z" fill="#010101"/>
<path d="M512.954 849.178C513.538 849.178 514.011 848.704 514.011 848.12C514.011 847.536 513.538 847.063 512.954 847.063C512.37 847.063 511.897 847.536 511.897 848.12C511.897 848.704 512.37 849.178 512.954 849.178Z" fill="#010101"/>
<path d="M494.318 848.12C494.318 847.459 494.847 847.063 495.375 847.063C496.036 847.063 496.433 847.592 496.433 848.12C496.433 848.649 495.904 849.178 495.375 849.178C494.847 849.178 494.318 848.649 494.318 848.12Z" fill="#010101"/>
<path d="M476.739 848.12C476.739 847.459 477.267 847.063 477.796 847.063C478.457 847.063 478.854 847.592 478.854 848.12C478.854 848.649 478.325 849.178 477.796 849.178C477.135 849.178 476.739 848.649 476.739 848.12Z" fill="#010101"/>
<path d="M547.055 832.392C547.055 831.731 547.584 831.334 548.112 831.334C548.773 831.334 549.17 831.863 549.17 832.392C549.17 833.053 548.641 833.449 548.112 833.449C547.584 833.449 547.055 832.92 547.055 832.392Z" fill="#010101"/>
<path d="M529.476 832.392C529.476 831.731 530.005 831.334 530.533 831.334C531.062 831.334 531.591 831.863 531.591 832.392C531.591 833.053 531.062 833.449 530.533 833.449C530.005 833.449 529.476 832.92 529.476 832.392Z" fill="#010101"/>
<path d="M511.897 832.392C511.897 831.731 512.426 831.334 512.954 831.334C513.615 831.334 514.012 831.863 514.012 832.392C514.012 833.053 513.483 833.449 512.954 833.449C512.426 833.449 511.897 832.92 511.897 832.392Z" fill="#010101"/>
<path d="M494.318 832.392C494.318 831.731 494.847 831.334 495.375 831.334C496.036 831.334 496.433 831.863 496.433 832.392C496.433 833.053 495.904 833.449 495.375 833.449C494.847 833.449 494.318 832.92 494.318 832.392Z" fill="#010101"/>
<path d="M476.739 832.392C476.739 831.731 477.268 831.334 477.796 831.334C478.457 831.334 478.854 831.863 478.854 832.392C478.854 833.053 478.325 833.449 477.796 833.449C477.136 833.449 476.739 832.92 476.739 832.392Z" fill="#010101"/>
<path d="M67.0027 580.999L104.54 607.433L142.077 580.999" stroke="#010101" stroke-width="2" stroke-miterlimit="10" stroke-linecap="round" stroke-linejoin="round"/>
<path d="M-83.0134 580.867L-45.4763 607.301L-7.93919 580.999L29.4658 607.433" stroke="#010101" stroke-width="2" stroke-miterlimit="10" stroke-linecap="round" stroke-linejoin="round"/>
<path d="M29.4658 583.642L67.0029 557.208L104.54 583.642L142.077 557.208" stroke="#FFAF00" stroke-width="2" stroke-miterlimit="10" stroke-linecap="round" stroke-linejoin="round"/>
<path d="M232.748 1003.82C253.552 1003.82 270.417 986.955 270.417 966.151C270.417 945.346 253.552 928.481 232.748 928.481C211.944 928.481 195.079 945.346 195.079 966.151C195.079 986.955 211.944 1003.82 232.748 1003.82Z" fill="#FFAF00"/>
<path d="M219.134 990.206C239.938 990.206 256.803 973.341 256.803 952.537C256.803 931.733 239.938 914.868 219.134 914.868C198.33 914.868 181.465 931.733 181.465 952.537C181.465 973.341 198.33 990.206 219.134 990.206Z" stroke="#010101" stroke-width="3" stroke-miterlimit="10" stroke-linecap="round" stroke-linejoin="round"/>
<path d="M219.134 970.777C229.207 970.777 237.374 962.61 237.374 952.537C237.374 942.463 229.207 934.297 219.134 934.297C209.06 934.297 200.894 942.463 200.894 952.537C200.894 962.61 209.06 970.777 219.134 970.777Z" stroke="#010101" stroke-width="3" stroke-miterlimit="10" stroke-linecap="round" stroke-linejoin="round"/>
<path d="M577.058 691.892L531.591 737.359C530.93 738.02 529.74 738.02 528.947 737.359L483.48 691.892C482.819 691.231 482.819 690.041 483.48 689.248L528.947 643.781C529.608 643.12 530.798 643.12 531.591 643.781L577.058 689.248C577.851 690.041 577.851 691.099 577.058 691.892Z" stroke="#FFAF00" stroke-width="2.3747" stroke-miterlimit="10"/>
<path d="M557.1 691.363L531.194 717.269C530.798 717.666 530.137 717.666 529.74 717.269L503.834 691.363C503.438 690.967 503.438 690.306 503.834 689.909L529.74 664.003C530.137 663.607 530.798 663.607 531.194 664.003L557.1 689.909C557.497 690.174 557.497 690.835 557.1 691.363Z" stroke="#FFAF00" stroke-width="2.3747" stroke-miterlimit="10"/>
<path d="M104.011 810.451L72.1575 842.305C71.6288 842.833 70.8358 842.833 70.3071 842.305L38.4534 810.451C37.9247 809.922 37.9247 809.129 38.4534 808.601L70.3071 776.747C70.8358 776.218 71.6288 776.218 72.1575 776.747L104.011 808.601C104.54 809.129 104.54 810.054 104.011 810.451Z" stroke="#FFAF00" stroke-width="1.6628" stroke-miterlimit="10"/>
<path d="M87.7541 812.434L74.1403 826.047C72.5542 827.633 70.0429 827.633 68.589 826.047L54.9752 812.434C53.3891 810.847 53.3891 808.336 54.9752 806.882L68.589 793.268C70.1751 791.682 72.6864 791.682 74.1403 793.268L87.7541 806.882C89.3402 808.336 89.3402 810.847 87.7541 812.434Z" fill="#010101"/>
<path d="M346.284 577.298L321.7 601.882C321.303 602.279 320.643 602.279 320.246 601.882L295.662 577.298C295.265 576.901 295.265 576.24 295.662 575.844L320.246 551.26C320.643 550.863 321.303 550.863 321.7 551.26L346.284 575.844C346.681 576.24 346.681 576.901 346.284 577.298Z" stroke="#FFAF00" stroke-width="2" stroke-miterlimit="10"/>
<path d="M333.728 578.752L323.154 589.326C321.965 590.515 319.982 590.515 318.792 589.326L308.219 578.752C307.029 577.562 307.029 575.58 308.219 574.39L318.792 563.816C319.982 562.627 321.965 562.627 323.154 563.816L333.728 574.39C334.918 575.58 334.918 577.562 333.728 578.752Z" stroke="#010101" stroke-width="2" stroke-miterlimit="10"/>
<path d="M543.486 375.073L510.84 407.72C510.311 408.249 509.518 408.249 508.989 407.72L476.342 375.073C475.814 374.545 475.814 373.752 476.342 373.223L508.989 340.576C509.518 340.047 510.311 340.047 510.84 340.576L543.486 373.223C544.015 373.752 544.015 374.545 543.486 375.073Z" stroke="#FFAF00" stroke-width="1.7064" stroke-miterlimit="10"/>
<path d="M529.079 374.677L510.443 393.313C510.179 393.577 509.65 393.577 509.386 393.313L490.749 374.677C490.485 374.412 490.485 373.884 490.749 373.619L509.386 354.983C509.65 354.719 510.179 354.719 510.443 354.983L529.079 373.619C529.344 373.884 529.344 374.412 529.079 374.677Z" fill="#010101"/>
<path d="M251.913 821.025L498.68 1067.79" stroke="#010101" stroke-width="2" stroke-miterlimit="10" stroke-linecap="round" stroke-linejoin="round"/>
<path d="M501.323 542.669L554.589 595.934" stroke="#010101" stroke-width="2" stroke-miterlimit="10" stroke-linecap="round" stroke-linejoin="round"/>
<path d="M683.722 485.834L712.536 514.648" stroke="#010101" stroke-width="2" stroke-miterlimit="10" stroke-linecap="round" stroke-linejoin="round"/>
<path d="M356.197 342.427L408.802 395.031" stroke="#FFAF00" stroke-width="2" stroke-miterlimit="10" stroke-linecap="round" stroke-linejoin="round"/>
<path d="M87.2256 906.276L116.039 935.09" stroke="#FFAF00" stroke-width="2" stroke-miterlimit="10" stroke-linecap="round" stroke-linejoin="round"/>
<path d="M232.748 567.121L305.046 639.551" stroke="#FFAF00" stroke-width="2" stroke-miterlimit="10" stroke-linecap="round" stroke-linejoin="round"/>
<path d="M321.568 931.125L568.335 1177.89" stroke="#FFAF00" stroke-width="2" stroke-miterlimit="10" stroke-linecap="round" stroke-linejoin="round"/>
<path d="M753.774 965.49L1000.54 1212.26" stroke="#FFAF00" stroke-width="2" stroke-miterlimit="10" stroke-linecap="round" stroke-linejoin="round"/>
<path d="M776.639 793.268L1023.41 1040.04" stroke="#010101" stroke-width="2" stroke-miterlimit="10" stroke-linecap="round" stroke-linejoin="round"/>
<path d="M816.952 805.825L1063.72 1052.59" stroke="#FFAF00" stroke-width="2" stroke-miterlimit="10" stroke-linecap="round" stroke-linejoin="round"/>
<path d="M-58.165 198.094L188.47 444.861" stroke="#FFAF00" stroke-width="2" stroke-miterlimit="10" stroke-linecap="round" stroke-linejoin="round"/>
<path d="M-132.182 166.372L114.453 413.139" stroke="#010101" stroke-width="2" stroke-miterlimit="10" stroke-linecap="round" stroke-linejoin="round"/>
<path d="M407.084 669.29L383.293 693.081L359.37 669.29L340.733 687.927L364.524 711.85L340.733 735.641L359.37 754.277L383.293 730.486L407.084 754.277L425.72 735.641L401.929 711.85L425.72 687.927L407.084 669.29Z" fill="#010101"/>
<path d="M404.044 651.183L380.12 674.974L356.329 651.183L337.693 669.951L361.484 693.742L337.693 717.533L356.329 736.302L380.12 712.379L404.044 736.302L422.68 717.533L398.889 693.742L422.68 669.951L404.044 651.183Z" stroke="#FFAF00" stroke-width="2" stroke-miterlimit="10" stroke-linecap="round" stroke-linejoin="round"/>
<path d="M55.5039 427.678L44.93 438.252L34.3562 427.678L26.0293 435.873L36.6031 446.447L26.0293 457.021L34.3562 465.347L44.93 454.774L55.5039 465.347L63.6986 457.021L53.1248 446.447L63.6986 435.873L55.5039 427.678Z" fill="#010101"/>
<path d="M54.0499 419.616L43.476 430.189L32.9022 419.616L24.7074 427.942L35.2813 438.516L22.7249 447.768L30.9196 455.963L43.476 446.711L54.0499 457.285L62.3767 449.09L51.8029 438.516L62.3767 427.942L54.0499 419.616Z" stroke="#FFAF00" stroke-miterlimit="10" stroke-linecap="round" stroke-linejoin="round"/>
<path d="M655.965 704.977L645.392 715.551L634.818 704.977L626.623 713.304L637.197 723.878L626.623 734.451L634.818 742.646L645.392 732.072L655.965 742.646L664.292 734.451L653.719 723.878L664.292 713.304L655.965 704.977Z" fill="#010101"/>
<path d="M654.644 697.047L644.07 707.488L633.496 697.047L625.169 705.241L635.743 715.815L623.187 725.067L631.514 733.394L644.07 724.142L654.644 734.716L662.971 726.389L652.397 715.815L662.971 705.241L654.644 697.047Z" stroke="#FFAF00" stroke-miterlimit="10" stroke-linecap="round" stroke-linejoin="round"/>
<path d="M143.399 852.878L197.193 805.164L192.038 881.957L143.399 852.878Z" fill="#FFAF00"/>
<path d="M133.222 835.432L190.453 791.815L179.482 867.946L133.222 835.432Z" stroke="#010101" stroke-width="2" stroke-miterlimit="10" stroke-linecap="round" stroke-linejoin="round"/>
<path d="M190.453 791.815C189.527 792.872 162.035 837.018 162.035 837.018L179.482 868.078L190.453 791.815Z" stroke="#010101" stroke-width="2" stroke-miterlimit="10" stroke-linecap="round" stroke-linejoin="round"/>
<path d="M133.222 835.432L162.035 836.886L190.453 791.815L133.222 835.432Z" stroke="#010101" stroke-width="2" stroke-miterlimit="10" stroke-linecap="round" stroke-linejoin="round"/>
<path d="M707.513 611.795L777.3 594.084L737.252 659.906L707.513 611.795Z" fill="#FFAF00"/>
<path d="M706.456 591.44L777.432 579.148L732.494 641.666L706.456 591.44Z" stroke="#010101" stroke-width="2" stroke-miterlimit="10" stroke-linecap="round" stroke-linejoin="round"/>
<path d="M777.433 579.148C776.111 579.677 731.436 606.112 731.436 606.112L732.626 641.666L777.433 579.148Z" stroke="#010101" stroke-width="2" stroke-miterlimit="10" stroke-linecap="round" stroke-linejoin="round"/>
<path d="M706.456 591.44L731.436 606.112L777.432 579.148L706.456 591.44Z" stroke="#010101" stroke-width="2" stroke-miterlimit="10" stroke-linecap="round" stroke-linejoin="round"/>
<path d="M228.122 744.232C237.242 735.112 252.177 735.112 261.297 744.232C270.417 753.352 270.417 768.287 261.297 777.407" stroke="#FFAF00" stroke-width="6" stroke-miterlimit="10" stroke-linecap="round" stroke-linejoin="round"/>
<path d="M228.385 743.968C237.505 734.848 252.441 734.848 261.561 743.968C270.681 753.088 270.681 768.023 261.561 777.143" stroke="#010101" stroke-width="2" stroke-miterlimit="10" stroke-linecap="round" stroke-linejoin="round"/>
<path d="M541.504 474.071C550.624 483.191 550.624 498.126 541.504 507.246C532.384 516.366 517.448 516.366 508.328 507.246" stroke="#FFAF00" stroke-width="6" stroke-miterlimit="10"/>
<path d="M541.9 474.335C551.02 483.455 551.02 498.391 541.9 507.511C532.78 516.63 517.845 516.63 508.725 507.511" stroke="#010101" stroke-width="2" stroke-miterlimit="10" stroke-linecap="round" stroke-linejoin="round"/>
<path d="M40.5682 1057.22C31.4483 1048.1 31.4483 1033.16 40.5682 1024.04C49.6882 1014.92 64.6237 1014.92 73.7436 1024.04" stroke="#FFAF00" stroke-width="6" stroke-miterlimit="10"/>
<path d="M40.3038 1056.82C31.1839 1047.7 31.1839 1032.77 40.3038 1023.65C49.4238 1014.53 64.3593 1014.53 73.4792 1023.65" stroke="#010101" stroke-width="2" stroke-miterlimit="10" stroke-linecap="round" stroke-linejoin="round"/>
<path d="M444.092 617.082C438.012 605.583 442.374 591.44 453.873 585.36C465.372 579.28 479.515 583.642 485.595 595.141" stroke="#FFAF00" stroke-width="15" stroke-miterlimit="10" stroke-linecap="round" stroke-linejoin="round"/>
<path d="M228.386 356.701C237.506 347.581 252.442 347.581 261.562 356.701C270.682 365.821 270.682 380.757 261.562 389.877" stroke="#010101" stroke-width="15" stroke-miterlimit="10" stroke-linecap="round" stroke-linejoin="round"/>
<path d="M652.793 1000.91C649.489 1000.91 646.317 999.723 643.806 997.211C638.783 992.189 638.783 984.258 643.806 979.236C650.546 972.495 650.546 961.393 643.806 954.652C637.065 947.911 626.094 947.911 619.222 954.652C614.199 959.674 606.269 959.674 601.246 954.652C596.223 949.629 596.223 941.699 601.246 936.676C617.9 920.022 644.995 920.022 661.781 936.676C678.435 953.33 678.435 980.425 661.781 997.211C659.27 999.723 656.098 1000.91 652.793 1000.91Z" fill="#FFAF00"/>
<path d="M660.46 993.246C657.155 993.246 653.983 992.056 651.472 989.545C646.449 984.523 646.449 976.592 651.472 971.57C658.213 964.829 658.213 953.726 651.472 946.985C644.731 940.245 633.761 940.245 626.888 946.985C621.865 952.008 613.935 952.008 608.912 946.985C603.89 941.963 603.89 934.033 608.912 929.01C625.566 912.356 652.661 912.356 669.447 929.01C686.101 945.664 686.101 972.759 669.447 989.545C666.936 992.056 663.632 993.246 660.46 993.246Z" stroke="#010101" stroke-width="2.5624" stroke-miterlimit="10"/>
<path d="M249.534 535.267C249.402 533.813 250.327 532.623 251.781 532.491C253.235 532.359 254.424 533.284 254.556 534.738C254.689 536.192 253.763 537.382 252.309 537.514C252.177 537.514 252.045 537.514 252.045 537.514C250.856 537.382 249.798 536.456 249.534 535.267ZM233.409 535.135C232.087 534.606 231.426 533.152 231.955 531.83C232.484 530.509 233.937 529.848 235.259 530.376C236.581 530.905 237.242 532.359 236.713 533.681C236.316 534.738 235.391 535.267 234.334 535.267C234.07 535.267 233.805 535.267 233.409 535.135ZM266.716 529.98C265.923 528.79 266.188 527.204 267.377 526.411C268.567 525.618 270.153 525.883 270.946 527.072C271.739 528.262 271.475 529.848 270.285 530.641C269.888 530.905 269.36 531.037 268.831 531.037C268.038 531.037 267.245 530.773 266.716 529.98ZM217.812 524.296C216.887 523.239 217.019 521.653 218.077 520.728C219.134 519.803 220.72 519.935 221.645 520.992C222.571 522.05 222.438 523.636 221.381 524.561C220.852 524.957 220.324 525.222 219.663 525.222C219.002 525.222 218.209 524.957 217.812 524.296ZM279.405 517.424C278.215 516.763 277.687 515.177 278.347 513.987C279.008 512.797 280.594 512.269 281.784 512.93C282.974 513.591 283.502 515.177 282.841 516.366C282.445 517.291 281.52 517.688 280.594 517.688C280.198 517.688 279.801 517.688 279.405 517.424ZM208.825 507.511C208.428 506.189 209.353 504.735 210.675 504.471C211.997 504.074 213.451 504.999 213.715 506.321C214.111 507.643 213.186 509.097 211.865 509.361C211.6 509.361 211.468 509.493 211.204 509.493C210.146 509.361 209.089 508.568 208.825 507.511ZM282.313 497.862C282.313 497.862 282.313 497.73 282.313 497.862C282.313 497.73 282.313 497.73 282.313 497.73C282.313 496.276 283.502 495.218 284.824 495.218C286.278 495.218 287.335 496.408 287.335 497.73C287.335 497.73 287.335 497.73 287.335 497.862C287.335 497.862 287.335 497.862 287.335 497.994C287.335 499.448 286.146 500.505 284.824 500.505C283.502 500.373 282.313 499.184 282.313 497.862ZM210.675 491.385C209.353 490.989 208.428 489.667 208.825 488.345C209.221 487.024 210.543 486.099 211.865 486.495C213.186 486.892 214.111 488.213 213.715 489.535C213.451 490.725 212.393 491.518 211.204 491.518C211.071 491.518 210.939 491.518 210.675 491.385ZM278.347 481.605C277.687 480.415 278.215 478.829 279.405 478.168C280.594 477.507 282.181 478.036 282.841 479.226C283.502 480.415 282.974 482.001 281.784 482.662C281.387 482.926 280.991 482.926 280.594 482.926C279.669 482.926 278.744 482.398 278.347 481.605ZM217.944 474.996C216.887 474.071 216.755 472.485 217.68 471.427C218.605 470.37 220.191 470.238 221.249 471.163C222.306 472.088 222.438 473.674 221.513 474.732C220.984 475.26 220.324 475.525 219.531 475.525C219.002 475.657 218.341 475.525 217.944 474.996ZM267.245 469.18C266.055 468.387 265.791 466.801 266.584 465.612C267.377 464.422 268.963 464.158 270.153 464.951C271.342 465.744 271.607 467.33 270.814 468.52C270.285 469.18 269.492 469.577 268.699 469.577C268.17 469.577 267.641 469.445 267.245 469.18ZM231.823 463.893C231.294 462.572 231.955 461.118 233.277 460.589C234.598 460.06 236.052 460.721 236.581 462.043C237.11 463.365 236.449 464.819 235.127 465.347C234.863 465.48 234.466 465.48 234.202 465.48C233.277 465.48 232.219 464.819 231.823 463.893ZM251.649 463.233C250.195 463.1 249.269 461.779 249.402 460.457C249.534 459.003 250.856 458.078 252.177 458.21C253.631 458.342 254.556 459.664 254.424 460.986C254.292 462.307 253.235 463.233 251.913 463.233C251.913 463.365 251.781 463.233 251.649 463.233Z" fill="#FFAF00"/>
<path d="M249.27 528.394C249.137 527.204 249.93 526.279 251.12 526.015C252.31 525.883 253.367 526.676 253.499 527.865C253.631 529.055 252.838 529.98 251.649 530.244C251.517 530.244 251.516 530.244 251.384 530.244C250.195 530.244 249.402 529.451 249.27 528.394ZM236.052 528.394C234.995 527.997 234.466 526.808 234.863 525.75C235.259 524.693 236.449 524.164 237.506 524.561C238.564 524.957 239.092 526.147 238.696 527.204C238.431 527.997 237.638 528.526 236.713 528.526C236.581 528.526 236.317 528.526 236.052 528.394ZM263.28 524.164C262.619 523.239 262.883 521.917 263.809 521.256C264.734 520.596 266.056 520.86 266.716 521.785C267.377 522.71 267.113 524.032 266.188 524.693C265.791 524.957 265.395 525.089 264.998 525.089C264.337 525.089 263.676 524.693 263.28 524.164ZM223.231 519.538C222.438 518.745 222.571 517.423 223.364 516.63C224.157 515.837 225.478 515.97 226.271 516.763C227.064 517.556 226.932 518.877 226.139 519.67C225.743 520.067 225.214 520.199 224.818 520.199C224.157 520.199 223.628 519.935 223.231 519.538ZM273.722 513.855C272.664 513.326 272.268 512.004 272.796 511.079C273.325 510.022 274.647 509.625 275.572 510.154C276.629 510.683 277.026 512.004 276.497 512.93C276.101 513.59 275.44 513.987 274.647 513.987C274.25 514.119 273.986 513.987 273.722 513.855ZM215.962 505.66C215.698 504.603 216.359 503.413 217.416 503.149C218.473 502.884 219.663 503.545 219.927 504.603C220.192 505.66 219.531 506.85 218.341 507.114C218.209 507.114 217.945 507.114 217.812 507.114C217.019 507.246 216.094 506.717 215.962 505.66ZM275.968 497.862C276.101 497.862 276.101 497.862 275.968 497.862C276.101 497.73 275.968 497.73 275.968 497.862C275.968 496.54 276.894 495.615 278.083 495.615C279.273 495.615 280.198 496.54 280.198 497.73C280.198 497.73 280.198 497.73 280.198 497.862C280.198 499.051 279.273 499.977 278.083 499.977C277.026 499.977 275.968 499.051 275.968 497.862ZM217.416 492.575C216.359 492.311 215.565 491.121 215.83 490.064C216.094 489.006 217.284 488.213 218.341 488.478C219.398 488.742 220.192 489.932 219.927 490.989C219.663 491.914 218.87 492.575 217.945 492.575C217.68 492.707 217.548 492.707 217.416 492.575ZM272.664 484.512C272.135 483.455 272.532 482.265 273.589 481.737C274.647 481.208 275.836 481.605 276.365 482.662C276.894 483.719 276.497 484.909 275.44 485.438C275.175 485.57 274.779 485.702 274.515 485.702C273.854 485.57 273.061 485.173 272.664 484.512ZM223.231 479.225C222.306 478.432 222.306 477.111 223.099 476.318C223.892 475.392 225.214 475.392 226.007 476.186C226.932 476.979 226.932 478.3 226.139 479.093C225.743 479.622 225.082 479.754 224.553 479.754C224.157 479.754 223.628 479.49 223.231 479.225ZM263.676 474.335C262.751 473.674 262.487 472.353 263.148 471.427C263.809 470.502 265.13 470.238 266.056 470.899C266.981 471.559 267.245 472.881 266.584 473.806C266.188 474.335 265.527 474.732 264.866 474.732C264.469 474.732 264.073 474.599 263.676 474.335ZM234.731 470.106C234.334 469.048 234.863 467.859 235.92 467.462C236.977 467.066 238.167 467.594 238.564 468.652C238.96 469.709 238.431 470.899 237.374 471.295C237.11 471.427 236.845 471.427 236.581 471.427C235.788 471.427 234.995 470.899 234.731 470.106ZM250.988 469.577C249.798 469.445 249.005 468.387 249.137 467.33C249.27 466.14 250.327 465.347 251.516 465.48C252.706 465.612 253.499 466.669 253.367 467.726C253.235 468.784 252.31 469.577 251.252 469.577C251.12 469.577 250.988 469.577 250.988 469.577Z" fill="#FFAF00"/>
<path d="M248.873 522.578C248.74 521.653 249.401 520.86 250.327 520.728C251.252 520.596 252.045 521.257 252.177 522.182C252.309 523.107 251.648 523.9 250.723 524.032C250.591 524.032 250.591 524.032 250.459 524.032C249.798 524.032 249.005 523.503 248.873 522.578ZM238.167 522.578C237.241 522.182 236.845 521.256 237.241 520.463C237.638 519.538 238.563 519.142 239.356 519.538C240.281 519.935 240.678 520.86 240.281 521.653C240.017 522.314 239.356 522.71 238.695 522.71C238.563 522.71 238.431 522.71 238.167 522.578ZM260.24 519.142C259.711 518.349 259.843 517.291 260.636 516.763C261.429 516.234 262.486 516.366 263.015 517.159C263.544 517.952 263.412 519.01 262.619 519.538C262.354 519.803 261.958 519.803 261.693 519.803C261.165 519.935 260.636 519.67 260.24 519.142ZM227.857 515.441C227.196 514.78 227.328 513.723 227.989 513.062C228.65 512.401 229.708 512.533 230.368 513.194C231.029 513.855 230.897 514.912 230.236 515.573C229.972 515.837 229.575 515.97 229.179 515.97C228.65 515.97 228.121 515.837 227.857 515.441ZM268.699 510.815C267.906 510.418 267.509 509.361 268.038 508.568C268.434 507.775 269.492 507.378 270.285 507.907C271.078 508.304 271.474 509.361 270.946 510.154C270.681 510.683 270.02 511.079 269.492 511.079C269.227 511.079 268.963 510.947 268.699 510.815ZM221.909 504.206C221.645 503.281 222.174 502.356 223.099 502.224C224.024 501.959 224.949 502.62 225.081 503.413C225.346 504.338 224.685 505.264 223.892 505.396C223.76 505.396 223.628 505.396 223.495 505.396C222.835 505.528 222.042 504.999 221.909 504.206ZM270.681 497.862C270.681 497.73 270.681 497.73 270.681 497.862C270.681 496.805 271.474 496.144 272.399 496.144C273.325 496.144 274.118 496.937 274.118 497.862C274.118 498.787 273.325 499.58 272.399 499.58C271.342 499.58 270.681 498.787 270.681 497.862ZM223.099 493.632C222.174 493.368 221.645 492.443 221.909 491.65C222.174 490.725 223.099 490.196 223.892 490.46C224.817 490.725 225.346 491.65 225.081 492.443C224.949 493.236 224.156 493.765 223.495 493.765C223.363 493.632 223.231 493.632 223.099 493.632ZM267.906 487.024C267.509 486.231 267.773 485.173 268.566 484.777C269.359 484.38 270.417 484.645 270.813 485.438C271.21 486.231 270.946 487.288 270.152 487.685C269.888 487.817 269.624 487.817 269.359 487.817C268.831 487.949 268.302 487.685 267.906 487.024ZM227.857 482.794C227.196 482.133 227.064 481.076 227.725 480.415C228.386 479.754 229.443 479.622 230.104 480.283C230.765 480.944 230.897 482.001 230.236 482.662C229.84 483.059 229.443 483.191 228.915 483.191C228.65 483.191 228.254 483.059 227.857 482.794ZM260.636 478.829C259.843 478.3 259.711 477.243 260.24 476.45C260.768 475.657 261.826 475.525 262.619 476.053C263.412 476.582 263.544 477.639 263.015 478.432C262.619 478.961 262.222 479.225 261.561 479.225C261.297 479.093 260.9 478.961 260.636 478.829ZM237.109 475.26C236.713 474.335 237.241 473.41 238.034 473.146C238.96 472.749 239.885 473.278 240.281 474.071C240.678 474.996 240.149 475.921 239.356 476.186C239.224 476.318 238.96 476.318 238.695 476.318C238.034 476.45 237.374 476.053 237.109 475.26ZM250.327 474.996C249.401 474.864 248.74 474.071 248.873 473.146C249.005 472.22 249.798 471.559 250.723 471.692C251.648 471.824 252.309 472.617 252.177 473.542C252.045 474.335 251.384 474.996 250.459 474.996H250.327Z" fill="#FFAF00"/>
<path d="M415.411 857.24C414.089 856.712 413.56 855.126 414.089 853.936C414.618 852.614 416.204 852.086 417.393 852.614C418.715 853.143 419.244 854.729 418.715 855.919C418.715 856.051 418.583 856.051 418.583 856.183C418.054 857.24 416.6 857.637 415.411 857.24Z" fill="#FFAF00"/>
<path d="M407.348 871.118C406.291 872.043 404.705 871.779 403.78 870.722C402.854 869.664 403.119 868.078 404.176 867.153C405.233 866.228 406.819 866.492 407.745 867.55C408.406 868.343 408.538 869.532 408.009 870.457C407.745 870.59 407.613 870.854 407.348 871.118Z" fill="#010101"/>
<path d="M419.508 839.793C418.054 839.926 416.865 838.868 416.733 837.414C416.6 835.96 417.658 834.771 419.112 834.639C420.566 834.506 421.755 835.564 421.887 837.018C421.887 837.546 421.755 838.075 421.491 838.472C421.094 839.133 420.433 839.661 419.508 839.793Z" fill="#010101"/>
<path d="M390.033 879.181C388.712 879.445 387.258 878.52 386.993 877.198C386.729 875.877 387.654 874.423 388.976 874.158C390.298 873.894 391.752 874.819 392.016 876.141C392.148 876.802 392.016 877.463 391.752 877.859C391.355 878.652 390.826 879.049 390.033 879.181Z" fill="#010101"/>
<path d="M415.014 822.479C413.825 823.272 412.239 822.875 411.446 821.686C410.653 820.496 411.049 818.91 412.239 818.117C413.428 817.324 415.014 817.72 415.807 818.91C416.336 819.703 416.336 820.76 415.807 821.553C415.675 821.95 415.411 822.214 415.014 822.479Z" fill="#010101"/>
<path d="M371.001 878.52C369.679 878.124 368.886 876.67 369.282 875.348C369.679 874.026 371.133 873.233 372.454 873.63C373.776 874.026 374.569 875.48 374.173 876.802C374.173 877.066 374.041 877.198 373.908 877.331C373.38 878.256 372.19 878.784 371.001 878.52Z" fill="#FFAF00"/>
<path d="M399.55 810.054C399.418 810.054 399.418 810.054 399.55 810.054C398.228 809.261 397.832 807.675 398.493 806.486C399.154 805.296 400.74 804.9 401.929 805.561C401.929 805.561 401.929 805.561 402.061 805.561C402.061 805.561 402.061 805.561 402.193 805.561C403.383 806.221 403.78 807.808 403.119 808.997C402.326 810.319 400.74 810.848 399.55 810.054Z" fill="#FFAF00"/>
<path d="M358.048 868.871C357.122 869.929 355.404 869.929 354.479 869.004C353.421 868.078 353.421 866.36 354.347 865.435C355.272 864.378 356.99 864.377 357.915 865.303C358.841 866.096 358.973 867.418 358.312 868.475C358.312 868.607 358.18 868.739 358.048 868.871Z" fill="#010101"/>
<path d="M383.425 805.428C381.971 805.428 380.913 804.239 381.046 802.785C381.046 801.331 382.235 800.274 383.689 800.406C385.143 800.406 386.2 801.595 386.2 803.049C386.2 803.446 386.068 803.842 385.804 804.239C385.275 804.9 384.482 805.428 383.425 805.428Z" fill="#FFAF00"/>
<path d="M347.474 854.464C346.152 854.861 344.698 854.2 344.302 852.878C343.905 851.557 344.566 850.103 345.888 849.706C347.21 849.31 348.663 849.971 349.06 851.292C349.324 851.953 349.192 852.746 348.796 853.407C348.531 853.804 348.135 854.2 347.474 854.464Z" fill="#010101"/>
<path d="M367.168 808.733C365.846 809.394 364.392 808.865 363.731 807.543C363.07 806.221 363.731 804.768 364.921 804.107C366.242 803.446 367.696 803.974 368.357 805.296C368.754 806.089 368.621 807.014 368.225 807.675C367.961 808.204 367.696 808.468 367.168 808.733Z" fill="#010101"/>
<path d="M344.83 836.753C343.377 836.489 342.451 835.167 342.716 833.846C342.98 832.392 344.302 831.466 345.623 831.731C347.077 831.995 348.003 833.317 347.738 834.639C347.738 834.903 347.606 835.299 347.474 835.564C346.945 836.357 345.888 836.886 344.83 836.753Z" fill="#010101"/>
<path d="M354.214 819.307C353.421 820.364 351.835 820.628 350.646 819.835C349.588 819.042 349.324 817.456 350.117 816.267C350.91 815.077 352.496 814.945 353.686 815.738C354.743 816.531 355.007 817.985 354.347 819.042C354.347 819.174 354.347 819.174 354.214 819.307Z" fill="#FFAF00"/>
<path d="M409.331 854.068C408.273 853.672 407.744 852.35 408.273 851.292C408.67 850.235 409.991 849.706 411.049 850.235C412.106 850.632 412.635 851.953 412.106 853.011C412.106 853.143 411.974 853.143 411.974 853.275C411.445 854.068 410.388 854.465 409.331 854.068Z" fill="#010101"/>
<path d="M402.722 865.435C401.797 866.228 400.475 865.964 399.814 865.171C399.021 864.245 399.153 862.924 400.079 862.263C401.004 861.47 402.325 861.734 402.986 862.527C403.515 863.188 403.647 864.113 403.119 864.906C403.119 865.171 402.986 865.303 402.722 865.435Z" fill="#010101"/>
<path d="M412.767 839.793C411.578 839.925 410.653 839 410.52 837.943C410.388 836.753 411.314 835.828 412.371 835.696C413.56 835.564 414.486 836.489 414.618 837.546C414.618 837.943 414.486 838.339 414.353 838.736C414.089 839.397 413.428 839.793 412.767 839.793Z" fill="#010101"/>
<path d="M388.58 872.176C387.39 872.44 386.333 871.647 386.068 870.59C385.804 869.4 386.597 868.343 387.654 868.078C388.844 867.814 389.901 868.607 390.166 869.664C390.298 870.193 390.166 870.722 389.901 871.118C389.769 871.647 389.241 872.044 388.58 872.176Z" fill="#010101"/>
<path d="M409.066 825.651C408.141 826.312 406.819 825.915 406.158 824.99C405.498 824.065 405.894 822.743 406.819 822.082C407.745 821.421 409.066 821.818 409.727 822.743C410.124 823.404 410.124 824.197 409.727 824.858C409.595 825.254 409.331 825.519 409.066 825.651Z" fill="#FFAF00"/>
<path d="M372.983 871.515C371.926 871.25 371.265 870.061 371.529 868.871C371.794 867.814 372.983 867.153 374.173 867.417C375.23 867.682 375.891 868.871 375.627 870.061C375.627 870.193 375.495 870.325 375.363 870.59C374.966 871.383 373.909 871.779 372.983 871.515Z" fill="#010101"/>
<path d="M396.378 815.606C396.378 815.606 396.378 815.474 396.378 815.606C396.378 815.474 396.378 815.474 396.378 815.606C395.32 814.945 394.924 813.755 395.453 812.698C395.981 811.641 397.303 811.376 398.36 811.905C399.418 812.434 399.682 813.755 399.154 814.813C398.625 815.738 397.435 816.134 396.378 815.606Z" fill="#010101"/>
<path d="M362.409 863.584C361.616 864.377 360.295 864.51 359.502 863.584C358.708 862.791 358.708 861.47 359.502 860.677C360.295 859.884 361.616 859.884 362.409 860.677C363.07 861.337 363.202 862.395 362.806 863.188C362.674 863.32 362.541 863.584 362.409 863.584Z" fill="#010101"/>
<path d="M383.16 811.773C381.971 811.773 381.178 810.715 381.178 809.658C381.178 808.468 382.235 807.675 383.293 807.675C384.482 807.675 385.407 808.733 385.275 809.79C385.275 810.187 385.143 810.451 385.011 810.715C384.746 811.376 383.953 811.773 383.16 811.773Z" fill="#010101"/>
<path d="M353.818 851.821C352.761 852.218 351.571 851.557 351.175 850.499C350.778 849.442 351.439 848.252 352.496 847.856C353.554 847.459 354.743 848.12 355.14 849.178C355.272 849.706 355.272 850.367 355.008 850.896C354.743 851.292 354.347 851.689 353.818 851.821Z" fill="#FFAF00"/>
<path d="M369.811 814.416C368.754 814.945 367.564 814.416 367.035 813.359C366.507 812.301 367.035 811.112 367.961 810.583C369.018 810.055 370.208 810.583 370.736 811.508C371.001 812.169 371.001 812.83 370.604 813.491C370.604 814.02 370.208 814.284 369.811 814.416Z" fill="#010101"/>
<path d="M351.571 837.282C350.382 837.15 349.721 836.092 349.853 834.903C349.985 833.713 351.042 833.053 352.232 833.185C353.422 833.317 354.082 834.374 353.95 835.564C353.95 835.828 353.818 836.092 353.686 836.225C353.289 837.018 352.496 837.546 351.571 837.282Z" fill="#010101"/>
<path d="M359.369 823.14C358.709 824.065 357.387 824.197 356.462 823.536C355.536 822.875 355.404 821.553 356.065 820.628C356.726 819.703 358.048 819.571 358.973 820.232C359.766 820.893 360.03 822.082 359.502 823.007C359.369 823.007 359.369 823.007 359.369 823.14Z" fill="#010101"/>
<path d="M404.176 851.425C403.383 851.028 402.987 850.103 403.251 849.178C403.648 848.385 404.573 847.856 405.498 848.252C406.291 848.649 406.688 849.574 406.423 850.499C406.423 850.499 406.423 850.632 406.291 850.632C405.894 851.425 404.969 851.821 404.176 851.425Z" fill="#010101"/>
<path d="M398.757 860.677C398.096 861.205 396.906 861.205 396.378 860.412C395.849 859.751 395.849 858.694 396.642 858.033C397.303 857.505 398.493 857.505 399.021 858.298C399.418 858.826 399.55 859.619 399.153 860.148C399.153 860.412 399.021 860.545 398.757 860.677Z" fill="#010101"/>
<path d="M406.952 839.926C406.026 840.058 405.233 839.265 405.101 838.339C404.969 837.414 405.762 836.621 406.687 836.489C407.612 836.357 408.405 837.15 408.538 838.075C408.538 838.472 408.538 838.736 408.273 839C408.009 839.529 407.48 839.793 406.952 839.926Z" fill="#010101"/>
<path d="M387.39 866.096C386.465 866.228 385.539 865.699 385.407 864.774C385.275 863.849 385.804 862.924 386.729 862.791C387.654 862.659 388.579 863.188 388.712 864.113C388.844 864.51 388.712 864.906 388.579 865.303C388.315 865.699 387.919 865.964 387.39 866.096Z" fill="#FFAF00"/>
<path d="M403.911 828.426C403.118 828.955 402.061 828.691 401.532 827.898C401.004 827.105 401.268 826.047 402.061 825.519C402.854 824.99 403.912 825.254 404.44 826.047C404.837 826.576 404.837 827.237 404.44 827.766C404.44 828.03 404.176 828.294 403.911 828.426Z" fill="#010101"/>
<path d="M374.701 865.567C373.776 865.303 373.247 864.378 373.512 863.452C373.776 862.527 374.701 861.998 375.626 862.263C376.552 862.527 377.08 863.452 376.816 864.378C376.816 864.51 376.684 864.642 376.684 864.774C376.287 865.435 375.494 865.831 374.701 865.567Z" fill="#010101"/>
<path d="M393.735 820.232C393.602 820.232 393.602 820.232 393.735 820.232C393.602 820.232 393.602 820.232 393.735 820.232C392.809 819.703 392.545 818.646 393.074 817.853C393.47 817.06 394.528 816.795 395.321 817.192C396.114 817.721 396.378 818.646 395.981 819.439C395.453 820.364 394.528 820.628 393.735 820.232Z" fill="#FFAF00"/>
<path d="M366.11 859.223C365.449 859.884 364.392 859.884 363.731 859.223C363.07 858.562 363.07 857.505 363.731 856.844C364.392 856.183 365.449 856.183 366.11 856.844C366.639 857.372 366.771 858.298 366.374 858.959C366.374 858.959 366.242 859.091 366.11 859.223Z" fill="#FFAF00"/>
<path d="M383.028 817.06C382.103 817.06 381.31 816.267 381.442 815.341C381.442 814.416 382.235 813.623 383.16 813.755C384.086 813.755 384.879 814.548 384.747 815.474C384.747 815.738 384.614 816.002 384.482 816.267C384.218 816.795 383.689 817.192 383.028 817.06Z" fill="#010101"/>
<path d="M359.105 849.574C358.18 849.838 357.255 849.442 356.99 848.517C356.726 847.591 357.123 846.666 358.048 846.402C358.973 846.138 359.898 846.534 360.162 847.459C360.295 847.988 360.295 848.385 360.03 848.781C359.898 849.178 359.634 849.442 359.105 849.574Z" fill="#010101"/>
<path d="M372.19 819.307C371.397 819.703 370.34 819.307 369.943 818.514C369.547 817.72 369.943 816.663 370.736 816.267C371.529 815.87 372.587 816.267 372.983 817.06C373.247 817.588 373.247 818.117 372.983 818.646C372.719 818.91 372.454 819.174 372.19 819.307Z" fill="#010101"/>
<path d="M357.387 837.943C356.462 837.811 355.801 836.885 355.933 835.96C356.065 835.035 356.99 834.374 357.915 834.506C358.841 834.639 359.502 835.564 359.369 836.489C359.369 836.753 359.237 836.885 359.105 837.018C358.841 837.678 358.048 837.943 357.387 837.943Z" fill="#010101"/>
<path d="M363.599 826.312C363.07 827.105 362.013 827.237 361.22 826.708C360.427 826.18 360.295 825.122 360.824 824.329C361.352 823.536 362.41 823.404 363.203 823.933C363.864 824.461 364.128 825.387 363.599 826.18C363.731 826.18 363.731 826.312 363.599 826.312Z" fill="#010101"/>
<path d="M744.522 400.186C743.2 399.657 742.671 398.071 743.2 396.882C743.729 395.56 745.315 395.031 746.504 395.56C747.826 396.089 748.355 397.675 747.826 398.864C747.826 398.997 747.694 398.997 747.694 399.129C747.165 400.186 745.711 400.715 744.522 400.186Z" fill="#FFAF00"/>
<path d="M736.459 414.064C735.402 414.989 733.816 414.725 732.89 413.668C731.965 412.61 732.229 411.024 733.287 410.099C734.344 409.174 735.93 409.438 736.856 410.496C737.516 411.289 737.649 412.478 737.12 413.403C736.856 413.668 736.723 413.8 736.459 414.064Z" fill="#010101"/>
<path d="M748.619 382.739C747.165 382.871 745.975 381.814 745.843 380.36C745.711 378.906 746.768 377.717 748.222 377.585C749.676 377.452 750.866 378.51 750.998 379.964C750.998 380.492 750.865 381.021 750.601 381.418C750.205 382.211 749.544 382.607 748.619 382.739Z" fill="#010101"/>
<path d="M719.144 422.259C717.823 422.523 716.369 421.598 716.105 420.276C715.84 418.955 716.765 417.501 718.087 417.236C719.409 416.972 720.863 417.897 721.127 419.219C721.259 419.88 721.127 420.541 720.863 420.937C720.466 421.598 719.938 421.995 719.144 422.259Z" fill="#010101"/>
<path d="M744.125 365.425C742.935 366.218 741.349 365.821 740.556 364.632C739.763 363.442 740.16 361.856 741.349 361.063C742.539 360.27 744.125 360.666 744.918 361.856C745.447 362.649 745.447 363.706 744.918 364.499C744.786 364.896 744.521 365.16 744.125 365.425Z" fill="#010101"/>
<path d="M700.112 421.466C698.79 421.069 697.997 419.616 698.393 418.294C698.79 416.972 700.244 416.179 701.565 416.576C702.887 416.972 703.68 418.426 703.284 419.748C703.284 420.012 703.151 420.144 703.019 420.276C702.491 421.202 701.301 421.73 700.112 421.466Z" fill="#FFAF00"/>
<path d="M728.661 353C728.528 353 728.528 353 728.661 353C727.339 352.207 726.942 350.621 727.603 349.432C728.264 348.242 729.85 347.846 731.04 348.507C731.04 348.507 731.04 348.507 731.172 348.507C731.172 348.507 731.172 348.507 731.304 348.507C732.494 349.167 732.89 350.753 732.229 351.943C731.436 353.265 729.85 353.793 728.661 353Z" fill="#FFAF00"/>
<path d="M687.158 411.817C686.233 412.875 684.515 412.875 683.589 411.95C682.532 411.024 682.532 409.306 683.457 408.381C684.382 407.324 686.101 407.323 687.026 408.249C687.951 409.042 688.083 410.363 687.422 411.421C687.422 411.553 687.29 411.685 687.158 411.817Z" fill="#010101"/>
<path d="M712.536 348.374C711.082 348.374 710.024 347.185 710.156 345.731C710.156 344.277 711.346 343.22 712.8 343.352C714.254 343.352 715.311 344.541 715.311 345.995C715.311 346.392 715.179 346.788 714.915 347.185C714.386 347.846 713.593 348.374 712.536 348.374Z" fill="#FFAF00"/>
<path d="M676.584 397.41C675.263 397.807 673.809 397.146 673.412 395.824C673.016 394.503 673.676 393.049 674.998 392.652C676.32 392.256 677.774 392.917 678.17 394.238C678.435 394.899 678.302 395.692 677.906 396.353C677.642 396.75 677.245 397.146 676.584 397.41Z" fill="#010101"/>
<path d="M696.278 351.679C694.956 352.34 693.503 351.811 692.842 350.489C692.181 349.167 692.842 347.713 694.031 347.053C695.353 346.392 696.807 346.92 697.468 348.242C697.864 349.035 697.732 349.96 697.336 350.621C697.071 351.15 696.807 351.414 696.278 351.679Z" fill="#010101"/>
<path d="M673.941 379.699C672.487 379.435 671.562 378.113 671.826 376.791C672.091 375.338 673.412 374.412 674.734 374.677C676.188 374.941 677.113 376.263 676.849 377.585C676.849 377.849 676.717 378.245 676.584 378.51C676.056 379.303 674.998 379.831 673.941 379.699Z" fill="#010101"/>
<path d="M683.325 362.252C682.532 363.31 680.946 363.574 679.757 362.781C678.699 361.988 678.435 360.402 679.228 359.212C680.021 358.023 681.607 357.891 682.797 358.684C683.854 359.477 684.118 360.931 683.457 361.988C683.457 362.12 683.458 362.12 683.325 362.252Z" fill="#FFAF00"/>
<path d="M738.441 397.014C737.384 396.617 736.855 395.296 737.384 394.238C737.78 393.181 739.102 392.652 740.16 393.181C741.217 393.578 741.746 394.899 741.217 395.957C741.217 396.089 741.085 396.089 741.085 396.221C740.556 397.014 739.499 397.411 738.441 397.014Z" fill="#010101"/>
<path d="M731.833 408.381C730.908 409.174 729.586 408.91 728.925 408.116C728.132 407.191 728.264 405.87 729.189 405.209C730.115 404.416 731.436 404.68 732.097 405.473C732.626 406.134 732.758 407.059 732.229 407.852C732.229 408.116 732.097 408.249 731.833 408.381Z" fill="#010101"/>
<path d="M741.878 382.739C740.688 382.871 739.763 381.946 739.631 380.889C739.499 379.699 740.424 378.774 741.481 378.642C742.671 378.51 743.596 379.435 743.728 380.492C743.728 380.889 743.596 381.285 743.464 381.682C743.199 382.343 742.539 382.739 741.878 382.739Z" fill="#010101"/>
<path d="M717.69 415.122C716.501 415.386 715.444 414.593 715.179 413.536C714.915 412.346 715.708 411.289 716.765 411.024C717.955 410.76 719.012 411.553 719.277 412.61C719.409 413.139 719.277 413.668 719.012 414.064C718.88 414.593 718.351 414.989 717.69 415.122Z" fill="#010101"/>
<path d="M738.177 368.597C737.252 369.258 735.93 368.861 735.269 367.936C734.608 367.011 735.005 365.689 735.93 365.028C736.855 364.367 738.177 364.764 738.838 365.689C739.234 366.35 739.234 367.143 738.838 367.804C738.706 368.2 738.441 368.465 738.177 368.597Z" fill="#FFAF00"/>
<path d="M702.094 414.461C701.037 414.196 700.376 413.007 700.64 411.817C700.904 410.76 702.094 410.099 703.284 410.363C704.341 410.628 705.002 411.817 704.737 413.007C704.737 413.139 704.605 413.271 704.473 413.536C704.077 414.329 703.019 414.725 702.094 414.461Z" fill="#010101"/>
<path d="M725.489 358.552C725.489 358.419 725.489 358.419 725.489 358.552C724.432 357.891 724.035 356.701 724.564 355.644C725.092 354.586 726.414 354.322 727.471 354.851C728.529 355.379 728.793 356.701 728.265 357.759C727.736 358.684 726.546 359.08 725.489 358.552Z" fill="#010101"/>
<path d="M691.52 406.663C690.727 407.456 689.405 407.588 688.612 406.663C687.819 405.87 687.819 404.548 688.612 403.755C689.405 402.962 690.727 402.962 691.52 403.755C692.181 404.416 692.313 405.473 691.917 406.266C691.785 406.398 691.652 406.53 691.52 406.663Z" fill="#010101"/>
<path d="M712.271 354.719C711.082 354.719 710.289 353.661 710.289 352.604C710.289 351.414 711.346 350.621 712.403 350.621C713.593 350.621 714.518 351.679 714.386 352.736C714.386 353.133 714.254 353.397 714.122 353.661C713.857 354.322 713.064 354.719 712.271 354.719Z" fill="#010101"/>
<path d="M682.929 394.767C681.872 395.164 680.682 394.503 680.286 393.445C679.889 392.388 680.55 391.198 681.607 390.802C682.665 390.405 683.854 391.066 684.251 392.124C684.383 392.652 684.383 393.313 684.119 393.842C683.854 394.238 683.458 394.635 682.929 394.767Z" fill="#FFAF00"/>
<path d="M698.922 357.362C697.864 357.891 696.675 357.362 696.146 356.305C695.617 355.247 696.146 354.058 697.071 353.529C698.129 353 699.318 353.529 699.847 354.454C700.111 355.115 700.111 355.776 699.715 356.437C699.715 356.966 699.318 357.23 698.922 357.362Z" fill="#010101"/>
<path d="M680.682 380.228C679.492 380.096 678.832 379.038 678.964 377.849C679.096 376.659 680.153 375.998 681.343 376.131C682.532 376.263 683.193 377.32 683.061 378.51C683.061 378.774 682.929 379.038 682.797 379.171C682.4 379.964 681.607 380.492 680.682 380.228Z" fill="#010101"/>
<path d="M688.48 366.085C687.819 367.011 686.498 367.143 685.572 366.482C684.647 365.821 684.515 364.499 685.176 363.574C685.837 362.649 687.158 362.517 688.084 363.178C688.877 363.839 689.141 365.028 688.612 365.953C688.48 365.953 688.48 365.953 688.48 366.085Z" fill="#010101"/>
<path d="M733.287 394.371C732.494 393.974 732.097 393.049 732.362 392.124C732.758 391.331 733.683 390.802 734.609 391.198C735.402 391.595 735.798 392.52 735.534 393.445C735.534 393.445 735.534 393.577 735.402 393.577C735.005 394.371 734.08 394.767 733.287 394.371Z" fill="#010101"/>
<path d="M727.868 403.623C727.207 404.151 726.017 404.151 725.488 403.358C724.96 402.697 724.96 401.64 725.753 400.979C726.414 400.45 727.603 400.45 728.132 401.243C728.528 401.772 728.661 402.565 728.264 403.094C728.264 403.358 728.132 403.49 727.868 403.623Z" fill="#010101"/>
<path d="M736.063 382.872C735.137 383.004 734.344 382.211 734.212 381.285C734.08 380.36 734.873 379.567 735.798 379.435C736.724 379.303 737.517 380.096 737.649 381.021C737.649 381.418 737.649 381.682 737.384 381.946C737.12 382.475 736.591 382.872 736.063 382.872Z" fill="#010101"/>
<path d="M716.501 409.042C715.576 409.174 714.65 408.645 714.518 407.72C714.386 406.795 714.915 405.87 715.84 405.737C716.765 405.605 717.69 406.134 717.822 407.059C717.955 407.456 717.823 407.852 717.69 408.249C717.426 408.645 717.029 408.91 716.501 409.042Z" fill="#FFAF00"/>
<path d="M733.023 371.372C732.23 371.901 731.172 371.637 730.643 370.844C730.115 370.051 730.379 368.993 731.172 368.465C731.965 367.936 733.023 368.2 733.551 368.993C733.948 369.522 733.948 370.183 733.551 370.712C733.551 370.976 733.287 371.24 733.023 371.372Z" fill="#010101"/>
<path d="M703.812 408.513C702.887 408.249 702.358 407.323 702.623 406.398C702.887 405.473 703.812 404.944 704.738 405.209C705.663 405.473 706.191 406.398 705.927 407.323C705.927 407.456 705.795 407.588 705.795 407.72C705.398 408.381 704.605 408.777 703.812 408.513Z" fill="#010101"/>
<path d="M722.845 363.178C722.713 363.178 722.713 363.178 722.845 363.178C722.713 363.178 722.713 363.178 722.845 363.178C721.92 362.649 721.656 361.592 722.184 360.799C722.581 360.006 723.638 359.741 724.431 360.138C725.224 360.666 725.489 361.592 725.092 362.385C724.563 363.31 723.638 363.706 722.845 363.178Z" fill="#FFAF00"/>
<path d="M695.221 402.169C694.56 402.829 693.503 402.829 692.842 402.169C692.181 401.508 692.181 400.45 692.842 399.79C693.503 399.129 694.56 399.129 695.221 399.79C695.75 400.318 695.882 401.243 695.485 401.904C695.485 401.904 695.353 402.036 695.221 402.169Z" fill="#FFAF00"/>
<path d="M712.139 360.138C711.214 360.138 710.421 359.345 710.553 358.419C710.553 357.494 711.346 356.701 712.272 356.833C713.197 356.833 713.99 357.626 713.858 358.552C713.858 358.816 713.725 359.08 713.593 359.345C713.329 359.741 712.8 360.138 712.139 360.138Z" fill="#010101"/>
<path d="M688.216 392.52C687.291 392.784 686.365 392.388 686.101 391.463C685.837 390.537 686.233 389.612 687.158 389.348C688.083 389.084 689.009 389.48 689.273 390.405C689.405 390.934 689.405 391.331 689.141 391.727C689.009 392.124 688.744 392.388 688.216 392.52Z" fill="#010101"/>
<path d="M701.301 362.252C700.508 362.649 699.451 362.252 699.054 361.459C698.657 360.666 699.054 359.609 699.847 359.213C700.64 358.816 701.698 359.213 702.094 360.006C702.358 360.534 702.358 361.063 702.094 361.592C701.83 361.856 701.565 362.12 701.301 362.252Z" fill="#010101"/>
<path d="M686.497 380.889C685.572 380.757 684.911 379.832 685.043 378.906C685.176 377.981 686.101 377.32 687.026 377.452C687.951 377.585 688.612 378.51 688.48 379.435C688.48 379.699 688.348 379.832 688.216 379.964C687.951 380.625 687.158 380.889 686.497 380.889Z" fill="#010101"/>
<path d="M692.71 369.258C692.181 370.051 691.124 370.183 690.331 369.654C689.538 369.125 689.405 368.068 689.934 367.275C690.463 366.482 691.52 366.35 692.313 366.878C692.974 367.407 693.238 368.332 692.71 369.125C692.842 369.125 692.842 369.258 692.71 369.258Z" fill="#010101"/>
<path d="M488.767 1009.11C487.181 1010.83 484.405 1011.09 482.687 1009.5C480.969 1007.92 480.704 1005.14 482.29 1003.42C483.877 1001.71 486.652 1001.44 488.37 1003.03C490.089 1004.61 490.353 1007.26 488.767 1009.11Z" fill="#FFAF00"/>
<path d="M507.668 1025.89C506.082 1027.61 503.306 1027.88 501.588 1026.29C499.87 1024.7 499.605 1021.93 501.191 1020.21C502.777 1018.49 505.553 1018.23 507.271 1019.81C508.99 1021.4 509.254 1024.04 507.668 1025.89Z" fill="#010101"/>
<path d="M545.337 1059.33C543.751 1061.05 540.976 1061.32 539.257 1059.73C537.539 1058.14 537.275 1055.37 538.861 1053.65C540.447 1051.93 543.223 1051.67 544.941 1053.25C546.791 1054.84 546.923 1057.61 545.337 1059.33Z" fill="#FFAF00"/>
<path d="M564.106 1076.12C562.52 1077.84 559.744 1078.1 558.026 1076.52C556.307 1074.93 556.043 1072.15 557.629 1070.44C559.215 1068.72 561.991 1068.45 563.709 1070.04C565.56 1071.63 565.692 1074.4 564.106 1076.12Z" fill="#010101"/>
<path d="M522.868 1008.71C521.282 1010.43 518.506 1010.69 516.788 1009.11C515.07 1007.52 514.805 1004.75 516.391 1003.03C517.977 1001.31 520.753 1001.04 522.471 1002.63C524.322 1004.22 524.454 1006.99 522.868 1008.71Z" fill="#FFAF00"/>
<path d="M541.636 1025.5C540.05 1027.21 537.275 1027.48 535.556 1025.89C533.838 1024.31 533.574 1021.53 535.16 1019.81C536.746 1018.09 539.522 1017.83 541.24 1019.42C543.09 1021 543.222 1023.78 541.636 1025.5Z" fill="#FFAF00"/>
<path d="M560.537 1042.28C558.951 1044 556.175 1044.27 554.457 1042.68C552.739 1041.09 552.474 1038.32 554.061 1036.6C555.647 1034.88 558.422 1034.62 560.14 1036.2C561.991 1037.79 562.123 1040.43 560.537 1042.28Z" fill="#010101"/>
<path d="M538.068 991.66C536.482 993.379 533.706 993.643 531.988 992.057C530.27 990.471 530.005 987.695 531.591 985.977C533.177 984.259 535.953 983.994 537.671 985.58C539.522 987.166 539.654 989.81 538.068 991.66Z" fill="#010101"/>
<path d="M556.836 1008.45C555.25 1010.16 552.474 1010.43 550.756 1008.84C549.038 1007.26 548.773 1004.48 550.36 1002.76C551.946 1001.04 554.721 1000.78 556.44 1002.37C558.158 1003.95 558.422 1006.6 556.836 1008.45Z" fill="#FFAF00"/>
<path d="M575.737 1025.1C574.151 1026.82 571.375 1027.08 569.657 1025.5C567.939 1023.91 567.674 1021.13 569.26 1019.42C570.847 1017.7 573.622 1017.43 575.34 1019.02C577.191 1020.61 577.323 1023.38 575.737 1025.1Z" fill="#FFAF00"/>
<path d="M594.638 1041.89C593.052 1043.6 590.276 1043.87 588.558 1042.28C586.84 1040.7 586.575 1037.92 588.161 1036.2C589.747 1034.48 592.523 1034.22 594.241 1035.81C595.96 1037.39 596.224 1040.17 594.638 1041.89Z" fill="#FFAF00"/>
<path d="M534.367 957.824C532.781 959.542 530.005 959.807 528.287 958.22C526.569 956.634 526.304 953.859 527.89 952.141C529.476 950.422 532.252 950.158 533.97 951.744C535.821 953.33 535.953 955.974 534.367 957.824Z" fill="#010101"/>
<path d="M572.168 991.264C570.582 992.982 567.807 993.246 566.088 991.66C564.37 990.074 564.106 987.299 565.692 985.58C567.278 983.862 570.054 983.598 571.772 985.184C573.49 986.77 573.754 989.546 572.168 991.264Z" fill="#FFAF00"/>
<path d="M590.937 1008.05C589.351 1009.77 586.575 1010.03 584.857 1008.45C583.139 1006.86 582.874 1004.08 584.46 1002.37C586.047 1000.65 588.822 1000.38 590.54 1001.97C592.391 1003.56 592.523 1006.33 590.937 1008.05Z" fill="#010101"/>
<path d="M611.952 645.764C621.442 645.764 629.134 638.071 629.134 628.581C629.134 619.091 621.442 611.399 611.952 611.399C602.462 611.399 594.77 619.091 594.77 628.581C594.77 638.071 602.462 645.764 611.952 645.764Z" stroke="#FFAF00" stroke-width="10" stroke-miterlimit="10" stroke-linecap="round" stroke-linejoin="round"/>
<path d="M111.149 518.877C120.638 518.877 128.331 511.185 128.331 501.695C128.331 492.205 120.638 484.512 111.149 484.512C101.659 484.512 93.9663 492.205 93.9663 501.695C93.9663 511.185 101.659 518.877 111.149 518.877Z" stroke="#010101" stroke-width="8" stroke-miterlimit="10" stroke-linecap="round" stroke-linejoin="round"/>
<path d="M227.99 674.577C215.565 674.577 205.52 664.532 205.52 652.108C205.52 639.684 215.565 629.638 227.99 629.638C240.414 629.638 250.459 639.684 250.459 652.108C250.459 664.532 240.282 674.577 227.99 674.577ZM227.99 640.212C221.381 640.212 216.094 645.499 216.094 652.108C216.094 658.716 221.381 664.003 227.99 664.003C234.598 664.003 239.885 658.716 239.885 652.108C239.885 645.499 234.466 640.212 227.99 640.212Z" fill="#010101"/>
<path d="M203.538 650.125C191.113 650.125 181.068 640.08 181.068 627.656C181.068 615.232 191.113 605.186 203.538 605.186C215.962 605.186 226.007 615.232 226.007 627.656C226.007 640.08 215.83 650.125 203.538 650.125ZM203.538 615.76C196.929 615.76 191.642 621.047 191.642 627.656C191.642 634.264 196.929 639.551 203.538 639.551C210.146 639.551 215.433 634.264 215.433 627.656C215.433 621.047 210.014 615.76 203.538 615.76Z" stroke="#FFAF00" stroke-width="2" stroke-miterlimit="10"/>
<path d="M805.982 944.21C793.558 944.21 783.513 934.165 783.513 921.741C783.513 909.317 793.558 899.271 805.982 899.271C818.406 899.271 828.451 909.317 828.451 921.741C828.451 934.165 818.406 944.21 805.982 944.21ZM805.982 909.845C799.373 909.845 794.087 915.132 794.087 921.741C794.087 928.349 799.373 933.636 805.982 933.636C812.591 933.636 817.878 928.349 817.878 921.741C817.878 915.132 812.591 909.845 805.982 909.845Z" fill="#010101"/>
<path d="M781.53 919.758C769.106 919.758 759.061 909.713 759.061 897.289C759.061 884.864 769.106 874.819 781.53 874.819C793.954 874.819 803.999 884.864 803.999 897.289C803.999 909.713 793.954 919.758 781.53 919.758ZM781.53 885.393C774.921 885.393 769.634 890.68 769.634 897.289C769.634 903.897 774.921 909.184 781.53 909.184C788.139 909.184 793.426 903.897 793.426 897.289C793.426 890.68 788.139 885.393 781.53 885.393Z" stroke="#FFAF00" stroke-width="2" stroke-miterlimit="10"/>
<path d="M506.742 494.293C494.318 494.293 484.273 484.248 484.273 471.824C484.273 459.4 494.318 449.354 506.742 449.354C519.166 449.354 529.212 459.4 529.212 471.824C529.212 484.116 519.166 494.293 506.742 494.293ZM506.742 459.928C500.133 459.928 494.847 465.215 494.847 471.824C494.847 478.432 500.133 483.719 506.742 483.719C513.351 483.719 518.638 478.432 518.638 471.824C518.638 465.215 513.351 459.928 506.742 459.928Z" fill="#010101"/>
<path d="M482.29 469.841C469.866 469.841 459.821 459.796 459.821 447.372C459.821 434.948 469.866 424.902 482.29 424.902C494.714 424.902 504.76 434.948 504.76 447.372C504.76 459.664 494.714 469.841 482.29 469.841ZM482.29 435.476C475.682 435.476 470.395 440.763 470.395 447.372C470.395 453.981 475.682 459.267 482.29 459.267C488.899 459.267 494.186 453.981 494.186 447.372C494.186 440.763 488.899 435.476 482.29 435.476Z" stroke="#FFAF00" stroke-width="2" stroke-miterlimit="10"/>
<path d="M756.417 541.611C762.403 541.611 767.255 536.759 767.255 530.773C767.255 524.787 762.403 519.935 756.417 519.935C750.431 519.935 745.579 524.787 745.579 530.773C745.579 536.759 750.431 541.611 756.417 541.611Z" stroke="#010101" stroke-width="4" stroke-miterlimit="10" stroke-linecap="round" stroke-linejoin="round"/>
<path d="M491.146 772.121C491.146 775.557 488.37 778.333 484.934 778.333C481.497 778.333 478.722 775.557 478.722 772.121C478.722 768.684 481.497 765.909 484.934 765.909C488.502 766.041 491.146 768.684 491.146 772.121Z" stroke="#010101" stroke-width="2.2857" stroke-miterlimit="10" stroke-linecap="round" stroke-linejoin="round"/>
<path d="M495.243 776.218C495.243 779.655 492.467 782.43 489.031 782.43C485.594 782.43 482.819 779.655 482.819 776.218C482.819 772.782 485.594 770.006 489.031 770.006C492.467 770.006 495.243 772.782 495.243 776.218Z" fill="#FFAF00"/>
<path d="M56.8256 724.539C56.8256 727.975 54.05 730.751 50.6135 730.751C47.177 730.751 44.4014 727.975 44.4014 724.539C44.4014 721.102 47.177 718.326 50.6135 718.326C54.05 718.459 56.8256 721.102 56.8256 724.539Z" stroke="#010101" stroke-width="2.2857" stroke-miterlimit="10" stroke-linecap="round" stroke-linejoin="round"/>
<path d="M60.9233 728.636C60.9233 732.072 58.1477 734.848 54.7112 734.848C51.2747 734.848 48.499 732.072 48.499 728.636C48.499 725.199 51.2747 722.424 54.7112 722.424C58.1477 722.424 60.9233 725.199 60.9233 728.636Z" fill="#FFAF00"/>
<path d="M227.593 420.409C227.593 423.845 224.818 426.621 221.381 426.621C217.945 426.621 215.169 423.845 215.169 420.409C215.169 416.972 217.945 414.196 221.381 414.196C224.818 414.329 227.593 417.104 227.593 420.409Z" stroke="#010101" stroke-width="2.2857" stroke-miterlimit="10" stroke-linecap="round" stroke-linejoin="round"/>
<path d="M231.691 424.506C231.691 427.942 228.915 430.718 225.478 430.718C222.042 430.718 219.266 427.942 219.266 424.506C219.266 421.069 222.042 418.294 225.478 418.294C228.915 418.294 231.691 421.069 231.691 424.506Z" fill="#FFAF00"/>
<path d="M346.813 420.541C353.95 427.678 353.95 439.177 346.813 446.315L320.775 420.541C327.912 413.403 339.543 413.403 346.813 420.541Z" fill="#FFAF00"/>
<path d="M299.759 432.701C292.622 425.563 292.622 414.064 299.759 406.927L325.798 432.701C318.528 439.706 306.897 439.706 299.759 432.701Z" stroke="#FFAF00" stroke-width="1.7707" stroke-miterlimit="10"/>
<path d="M758.267 757.185C765.405 764.323 765.405 775.822 758.267 782.959L732.229 757.185C739.499 750.048 751.13 750.048 758.267 757.185Z" fill="#FFAF00"/>
<path d="M711.214 769.213C704.077 762.076 704.077 750.577 711.214 743.439L737.252 769.213C730.115 776.35 718.351 776.35 711.214 769.213Z" stroke="#FFAF00" stroke-width="1.7707" stroke-miterlimit="10"/>
</g>
</g>
</svg>
