<svg width="1320" height="271" viewBox="0 0 1320 271" fill="none" xmlns="http://www.w3.org/2000/svg">
<path d="M9.60373 270.152C-24.3224 270.152 38.4409 210.8 91.8745 225.214C106.293 229.453 137.675 227.757 152.093 222.67C185.171 209.952 186.02 166.709 192.805 131.946C199.59 97.1819 203.831 58.1788 226.731 31.0462C253.024 0.522041 299.672 -7.109 336.991 6.45729C375.158 20.0236 403.995 50.5477 434.528 76.8324C465.062 103.117 503.229 126.858 543.092 120.923C572.777 116.683 597.374 98.0298 626.211 91.2466C683.885 76.8324 741.56 112.444 784.816 152.295C828.071 192.146 869.631 213.343 925.609 231.149C956.142 240.476 1029.08 254.89 1105.42 238.78C1141.89 231.149 1163.94 209.104 1202.11 209.104C1258.08 209.104 1291.16 242.172 1320 271C1272.5 270.152 43.5299 270.152 9.60373 270.152Z" fill="#FFD56A"/>
</svg>
