<svg width="830" height="366" viewBox="0 0 830 366" fill="none" xmlns="http://www.w3.org/2000/svg">
<path d="M429.8 89.2087C440.928 89.2087 420.342 69.7356 402.816 74.4648C398.087 75.8557 387.794 75.2993 383.065 73.6302C372.215 69.4574 371.937 55.2698 369.712 43.8641C367.486 32.4584 366.095 19.6618 358.584 10.7597C349.96 0.744982 334.66 -1.75871 322.42 2.6923C309.901 7.1433 300.443 17.1581 290.428 25.7819C280.413 34.4057 267.895 42.195 254.82 40.2477C245.084 38.8567 237.016 32.7366 227.558 30.5111C208.641 25.7819 189.724 37.4658 175.537 50.5406C161.349 63.6154 147.718 70.5701 129.357 76.4121C119.343 79.4722 95.4185 84.2014 70.3815 78.9158C58.4195 76.4121 51.1866 69.1792 38.6681 69.1792C20.3077 69.1792 9.45839 80.0285 0 89.4869C15.5785 89.2087 418.673 89.2087 429.8 89.2087Z" fill="#FFD56A"/>
<path d="M97.3657 184.178H215.874" stroke="#D8A21C" stroke-width="1.5" stroke-miterlimit="10" stroke-linejoin="round"/>
<path d="M243.971 184.178H290.985" stroke="#D8A21C" stroke-width="1.5" stroke-miterlimit="10" stroke-linejoin="round"/>
<path d="M829 364.449C829 334.161 771.004 345.175 741.177 345.175C729.578 345.175 715.769 345.175 710.246 331.958C704.722 319.292 711.351 303.321 710.246 288.452C708.037 259.265 678.21 249.352 656.116 255.41C634.022 261.468 610.824 274.685 590.387 263.12C562.77 247.7 563.875 219.063 543.99 189.325C523.553 159.037 488.756 152.428 459.481 165.095C430.207 177.761 407.009 206.397 388.229 237.787C369.449 269.178 358.955 324.248 309.796 339.117C279.969 348.479 251.248 314.335 221.973 317.639C196.013 320.393 163.425 334.711 171.158 365H829V364.449Z" stroke="white" stroke-miterlimit="10" stroke-linejoin="round"/>
</svg>
