<svg width="1104" height="985" viewBox="0 0 1104 985" fill="none" xmlns="http://www.w3.org/2000/svg">
<ellipse cx="588.5" cy="978" rx="515.5" ry="7" fill="#DEAB2A"/>
<path d="M1103.53 513.933C1103.53 750.428 953.13 976.115 716.521 976.115C479.912 976.115 231.013 721.485 231.013 484.99C231.013 248.495 438.092 85.8248 674.885 85.8248C911.678 85.8248 1103.53 277.439 1103.53 513.933Z" fill="#F5C039"/>
<path d="M902.729 371.384C902.729 576.252 772.543 771.757 567.739 771.757C362.935 771.757 147.493 551.179 147.493 346.311C147.493 141.444 326.737 0.527588 531.7 0.527588C736.663 0.527588 902.729 166.516 902.729 371.384Z" fill="black"/>
<path d="M534.249 733.779L531.013 733.032L519.561 782.324C519.063 784.316 517.57 785.81 515.578 786.308L515.329 786.557L520.557 787.801C520.806 787.801 521.055 787.801 521.055 787.801H521.304C522.3 787.303 523.296 786.308 523.545 785.063L534.996 735.024C535.245 734.526 534.747 734.028 534.249 733.779Z" fill="#010101"/>
<path d="M473.256 716.85L511.844 732.783L529.021 735.77L517.818 783.569C517.569 784.814 516.076 785.561 514.831 785.312C513.835 785.063 513.088 784.316 512.839 783.32L506.118 758.923L464.792 748.218" fill="#FFA18D"/>
<path d="M498.898 727.306L511.843 732.534L529.021 735.522L517.818 783.32C517.569 784.565 516.076 785.312 514.831 785.063C513.835 784.814 513.088 784.067 512.839 783.071L506.118 758.674L488.691 754.193" fill="white"/>
<path d="M503.877 758.923L512.59 784.565C512.839 785.561 513.835 786.556 515.08 786.805C516.823 787.303 518.565 785.81 518.814 784.565L530.764 733.281L511.097 732.534C511.346 732.534 512.839 749.712 503.877 758.923Z" fill="#4376CF"/>
<path d="M504.375 762.657C506.616 761.661 508.856 761.163 511.097 760.666" stroke="#010101" stroke-miterlimit="10" stroke-linecap="round" stroke-linejoin="round"/>
<path d="M505.62 766.143C508.109 765.147 509.354 764.898 511.346 764.4" stroke="#010101" stroke-miterlimit="10" stroke-linecap="round" stroke-linejoin="round"/>
<path d="M506.367 769.13C507.86 768.383 510.101 768.134 511.595 767.636" stroke="#010101" stroke-miterlimit="10" stroke-linecap="round" stroke-linejoin="round"/>
<path d="M280.817 974.017V970.78L230.031 970.531C228.039 970.531 226.297 969.287 225.052 967.544H224.803V973.021C224.803 973.27 224.803 973.519 225.052 973.519V973.768C225.799 974.764 227.044 975.262 228.288 975.262L279.572 975.51C280.319 975.262 280.817 974.764 280.817 974.017Z" fill="#010101"/>
<path d="M270.361 909.041L277.083 952.109L278.079 969.536L229.035 969.287C227.791 969.287 226.546 968.042 226.546 966.797C226.546 965.801 227.044 964.806 228.04 964.557L250.196 952.607L237.749 908.045" fill="#FFA18D"/>
<path d="M274.594 936.425L277.083 952.109L278.079 969.536L229.035 969.287C227.791 969.287 226.546 968.042 226.546 966.797C226.546 965.801 227.044 964.806 228.04 964.557L250.196 952.607L246.213 938.168" fill="white"/>
<path d="M249.698 950.117L226.795 964.308C225.799 964.806 225.052 966.05 225.052 967.295C225.052 969.038 226.795 970.531 228.288 970.531L281.066 970.78L277.332 951.611C277.083 951.362 260.652 956.839 249.698 950.117Z" fill="#4376CF"/>
<path d="M245.964 951.362C247.458 953.354 248.453 955.345 249.449 957.586" stroke="#010101" stroke-miterlimit="10" stroke-linecap="round" stroke-linejoin="round"/>
<path d="M242.977 953.354C244.47 955.346 244.968 956.59 245.715 958.582" stroke="#010101" stroke-miterlimit="10" stroke-linecap="round" stroke-linejoin="round"/>
<path d="M240.238 954.599C241.234 956.092 241.98 957.835 242.727 959.329" stroke="#010101" stroke-miterlimit="10" stroke-linecap="round" stroke-linejoin="round"/>
<path d="M185.22 470.139V495.034C185.22 495.034 164.806 646.148 180.49 728.8C196.92 814.688 238.495 921.239 238.495 921.239H274.842C274.842 921.239 261.897 753.944 258.66 717.099C260.403 681.748 268.867 569.969 268.867 569.969C268.867 569.969 303.969 515.946 269.116 471.633" fill="#4376CF"/>
<path d="M268.121 920.99C268.121 920.99 252.686 771.371 247.956 723.572C247.458 719.091 247.458 714.361 247.707 709.88C250.445 669.052 257.416 569.969 257.416 569.969" stroke="#1D334F" stroke-width="0.75" stroke-miterlimit="10" stroke-linejoin="round"/>
<path d="M212.356 486.819C212.356 486.819 212.107 542.335 217.086 566.981C224.554 602.581 239.491 655.11 278.826 696.436C315.421 735.272 470.518 751.454 470.518 751.454L482.468 719.091C482.468 719.091 390.854 658.844 330.856 654.861C327.122 642.414 310.193 556.525 310.193 556.525C310.193 556.525 311.687 507.482 285.298 483.583C283.307 481.84 281.564 480.097 280.319 477.857L262.146 443.999" fill="#4376CF"/>
<path d="M185.22 495.035C185.22 495.035 233.765 504.495 282.56 481.591" stroke="#1D334F" stroke-width="0.75" stroke-miterlimit="10" stroke-linejoin="round"/>
<path d="M207.625 496.777L202.895 496.528C201.401 496.528 199.908 495.035 199.908 493.541V483.583C199.908 482.089 201.152 480.595 202.646 480.595L209.119 480.346" stroke="#1D334F" stroke-width="0.75" stroke-miterlimit="10" stroke-linejoin="round"/>
<path d="M209.368 489.06C209.368 490.055 208.621 491.051 207.376 491.051C206.381 491.051 205.385 490.304 205.385 489.06C205.385 488.064 206.132 487.068 207.376 487.068C208.372 487.068 209.368 487.815 209.368 489.06Z" fill="white"/>
<path d="M212.356 496.777C212.356 496.777 212.107 542.335 217.086 566.732C222.563 593.868 235.259 637.435 261.648 675.524" stroke="#1D334F" stroke-width="0.75" stroke-miterlimit="10" stroke-linejoin="round"/>
<path d="M202.896 496.777C203.144 503.748 203.393 510.718 203.642 517.689C204.14 529.39 201.402 540.842 214.347 546.318" stroke="#1D334F" stroke-width="0.75" stroke-miterlimit="10" stroke-linejoin="round"/>
<path d="M237.25 494.288L233.516 479.351" stroke="#1D334F" stroke-width="0.75" stroke-miterlimit="10" stroke-linejoin="round"/>
<path d="M272.104 486.072L266.876 470.139" stroke="#1D334F" stroke-width="0.75" stroke-miterlimit="10" stroke-linejoin="round"/>
<path d="M480.227 725.065C480.227 725.065 388.115 671.541 328.616 663.823C324.633 663.326 321.645 660.587 320.649 656.604C315.67 634.198 304.468 580.674 301.978 567.23C301.729 565.737 301.729 564.243 301.729 562.5C302.725 553.289 298.742 502.254 271.855 485.823" stroke="#1D334F" stroke-width="0.75" stroke-miterlimit="10" stroke-linejoin="round"/>
<path d="M490.434 722.327L480.725 716.352L467.281 753.197L478.235 754.691L490.434 722.327Z" fill="#89B5F4"/>
<path d="M277.083 926.467V915.513H235.01L237.5 926.467H277.083Z" fill="#89B5F4"/>
<path d="M257.416 490.802C257.416 490.802 273.348 502.005 290.277 507.482" stroke="#1D334F" stroke-width="0.75" stroke-miterlimit="10" stroke-linejoin="round"/>
<path d="M181.486 521.672C181.486 521.672 188.954 508.229 192.439 497.026" stroke="#1D334F" stroke-width="0.75" stroke-miterlimit="10" stroke-linejoin="round"/>
<path d="M308.7 369.314C308.7 369.314 356.498 423.586 361.228 438.523C365.958 453.46 376.663 539.597 376.663 539.597L351.768 542.584L323.886 450.97L262.146 391.471" fill="#FFA18D"/>
<path d="M350.274 534.12C350.772 540.095 351.519 551.049 352.017 557.023C352.266 560.509 353.511 566.483 355.005 566.732C358.988 567.23 355.502 557.521 357.743 557.77C358.988 558.019 359.486 565.488 359.735 569.471C359.984 572.956 360.73 577.437 362.971 577.935C365.709 578.433 364.216 559.015 364.216 559.015C364.216 559.015 366.705 579.429 369.195 579.678C372.68 580.176 369.942 559.762 369.942 559.762C369.942 559.762 372.431 576.939 374.921 577.437C377.41 577.686 375.17 565.239 375.17 560.011C376.165 563.745 377.41 573.703 379.153 573.952C380.895 574.201 381.144 566.732 380.895 564.99C379.651 553.787 375.17 532.128 375.17 532.128" fill="#FFA18D"/>
<path d="M153.603 364.086L121.239 398.192L40.8278 360.85L26.3887 379.023C26.3887 379.023 98.5845 445.244 122.484 445.244C141.155 445.244 203.144 397.943 203.144 397.943" fill="#FFA18D"/>
<path d="M49.7903 364.833C44.5623 359.854 33.8574 349.149 28.6294 344.17C25.393 341.183 19.6672 336.453 18.4224 337.199C14.9371 339.689 25.642 346.162 23.8993 347.406C22.9035 348.153 15.9329 342.178 14.6881 341.432C11.2028 339.191 7.46854 337.199 3.73427 335.457C2.98742 335.208 2.24056 334.71 1.49371 334.959C0.746854 334.959 0 335.706 0 336.453C0 337.199 0.497903 337.697 0.995805 338.195C5.47693 341.929 10.207 345.664 14.6881 349.398C12.9455 349.149 11.7007 349.647 10.456 351.141C9.2112 352.136 10.207 353.879 10.207 353.879C10.207 353.879 8.21539 353.879 7.46854 354.626C6.72168 355.373 6.47273 356.618 6.47273 357.613C6.72168 358.609 6.97064 359.605 7.46854 360.601C6.22378 360.352 4.97903 361.099 4.73007 362.343C4.23217 363.339 4.48112 364.833 4.73007 365.829C5.72588 369.314 8.21539 372.55 11.2028 374.293C12.6965 375.04 13.9413 376.285 15.6839 376.036C17.4266 375.787 18.9203 374.791 19.6672 373.048C23.4014 377.778 28.1315 381.513 33.6084 384.002" fill="#FFA18D"/>
<path d="M34.6042 367.82C34.6042 367.82 27.3846 362.094 25.8909 351.39" stroke="#E07A6C" stroke-width="0.75" stroke-miterlimit="10" stroke-linejoin="round"/>
<path d="M17.9241 352.883C19.4178 354.626 20.6625 356.369 22.1562 357.862C23.401 359.356 27.8821 362.343 24.3968 363.837C22.1562 364.833 18.6709 362.841 16.9283 361.597C15.6835 360.601 14.6877 359.605 13.443 358.609C13.194 358.36 12.6961 358.858 12.945 359.107C14.9367 363.09 21.9073 368.069 26.3884 364.335C27.3842 363.339 27.6332 362.343 26.8863 361.099C25.8905 359.605 24.1479 358.111 22.6541 356.867C21.1604 355.622 19.4178 354.377 17.9241 352.883C17.6751 352.883 17.9241 352.634 17.9241 352.883Z" fill="#E07A6C"/>
<path d="M8.96214 363.339C10.7048 365.58 12.6964 367.571 14.937 369.065C16.4307 370.061 18.1733 371.057 19.916 370.559C21.9076 369.812 23.6503 366.078 21.9076 364.335C21.6587 364.086 21.4097 364.335 21.4097 364.584C21.1608 365.331 21.4097 366.327 21.1608 367.074C20.6628 369.314 18.9202 369.812 16.9286 368.816C14.1901 367.323 11.7006 364.833 9.46004 362.841C9.21109 362.592 8.71319 363.09 8.96214 363.339Z" fill="#E07A6C"/>
<path d="M237.25 339.938C237.25 339.938 265.382 328.237 291.024 349.398C310.94 365.829 330.607 389.728 330.607 389.728L292.518 424.581L250.445 386.243" fill="#F05448"/>
<path d="M226.546 341.681C226.546 341.681 200.904 334.461 176.755 347.406C152.607 360.352 132.193 386.99 132.193 386.99L167.046 424.83L208.621 398.192" fill="#F05448"/>
<path d="M187.958 358.36C152.109 394.209 182.232 422.092 182.232 422.092L185.22 479.102C185.22 479.102 194.182 482.089 212.356 481.591C245.217 480.346 275.34 469.144 275.34 469.144C275.34 469.144 286.543 418.358 287.29 391.72C287.788 367.82 269.863 354.128 269.863 354.128L232.272 339.938L187.958 358.36Z" fill="#F05448"/>
<path d="M217.085 257.535C214.596 258.033 211.857 258.78 209.866 260.273C208.123 261.518 206.381 262.265 204.389 263.012C199.908 265.004 195.676 267.991 192.688 271.725C188.456 277.202 185.966 284.173 186.962 291.143C187.211 293.135 187.709 295.127 187.709 297.367C187.46 302.595 184.224 303.342 180.49 306.578C176.257 310.313 172.274 314.794 172.274 320.769C172.274 327.241 176.257 333.963 182.73 336.204C187.46 337.946 193.684 336.204 198.912 335.955C211.111 334.959 223.06 334.212 235.259 333.216C245.217 332.469 255.424 330.976 265.631 330.976C273.099 330.976 274.344 324.254 274.344 318.03C274.344 313.549 272.602 307.325 269.614 303.84C268.618 302.595 267.125 301.35 266.378 299.857C265.631 298.612 265.631 297.118 265.382 295.625C265.133 290.645 264.635 285.418 263.39 280.438C262.146 275.459 259.656 270.729 255.922 267.493C253.432 265.501 250.445 264.008 247.209 263.51C244.221 263.012 240.238 263.261 237.25 263.759" fill="#010101"/>
<path d="M222.065 312.802L217.335 342.676C217.335 342.676 217.584 353.132 232.521 353.132C243.226 353.132 245.217 343.423 245.217 343.423L240.985 313.051" fill="#FFA18D"/>
<path d="M247.707 270.48C261.399 284.173 271.108 320.022 249.449 324.254C232.272 327.49 217.832 316.785 213.351 302.844C206.879 282.43 234.014 256.788 247.707 270.48Z" fill="#FFA18D"/>
<path d="M254.18 288.903C254.18 289.899 253.184 290.895 252.188 290.895C251.192 290.895 250.196 289.899 250.196 288.903C250.196 287.907 251.192 286.911 252.188 286.911C253.433 286.911 254.18 287.907 254.18 288.903Z" fill="#060A47"/>
<path d="M232.272 296.869C232.272 297.865 233.268 298.861 234.264 298.861C235.259 298.861 236.255 297.865 236.255 296.869C236.255 295.873 235.259 294.878 234.264 294.878C233.268 294.878 232.272 295.873 232.272 296.869Z" fill="#060A47"/>
<path d="M237.002 288.654C232.521 286.662 226.546 289.152 225.799 294.38C225.799 294.629 226.297 294.878 226.297 294.629C228.538 290.397 232.023 288.156 236.753 289.401C237.251 289.65 237.5 288.903 237.002 288.654Z" fill="#060A47"/>
<path d="M254.926 281.932C251.441 278.696 243.973 281.185 244.719 286.413C244.719 286.662 245.217 286.662 245.217 286.413C245.964 284.92 246.711 283.177 248.205 282.181C250.196 280.936 252.437 281.434 254.428 282.43C254.926 282.43 255.424 282.181 254.926 281.932Z" fill="#060A47"/>
<path d="M245.218 291.392C245.218 291.392 252.935 299.608 252.188 301.351C250.943 304.338 246.213 304.338 246.213 304.338" stroke="#E07A6C" stroke-width="0.75" stroke-miterlimit="10" stroke-linejoin="round"/>
<path d="M238.744 311.308L253.93 307.325C253.93 307.325 255.922 316.287 250.943 317.532C241.234 320.271 238.744 311.308 238.744 311.308Z" fill="white"/>
<path d="M193.684 275.708C196.174 265.999 202.398 257.535 212.107 255.045C216.588 253.801 221.318 253.801 225.799 254.299C229.782 254.797 233.267 256.539 237.002 257.535C240.736 258.531 243.972 256.539 247.707 256.788C254.926 257.286 262.395 263.51 259.158 271.227C257.665 274.713 254.677 277.202 251.441 278.945C242.728 283.675 232.521 284.422 222.812 284.671C224.305 284.671 225.301 293.633 225.301 294.878C225.052 298.114 223.807 301.101 222.812 304.338C220.073 312.802 216.339 320.769 212.107 328.735C211.858 329.233 211.36 329.98 210.613 329.98C210.364 329.98 210.115 329.731 209.866 329.482C206.381 325.748 203.393 321.267 200.904 316.536C199.161 313.051 196.423 309.566 195.178 305.832C194.68 303.84 194.929 301.848 195.178 299.857C195.178 297.118 194.182 295.376 193.435 292.637C191.693 286.911 192.439 280.936 193.684 275.708Z" fill="#010101"/>
<path d="M242.728 325.997C242.728 325.997 232.77 326.743 224.803 320.271" stroke="#E07A6C" stroke-width="0.75" stroke-miterlimit="10" stroke-linejoin="round"/>
<path d="M223.309 303.591C220.82 301.35 218.081 303.093 217.086 304.338C214.596 307.325 215.592 312.055 217.832 315.292C220.322 319.026 223.06 319.026 224.803 318.279C226.546 317.532 227.293 314.545 226.297 311.309" fill="#FFA18D"/>
<path d="M209.119 264.755C214.347 263.51 214.347 257.286 213.849 253.054C212.356 243.843 204.887 238.117 195.676 238.864C185.967 239.61 175.511 246.083 177.005 259.776C178.249 271.974 197.419 274.464 206.132 267.493C206.381 267.244 206.63 266.995 207.128 266.746" fill="#010101"/>
<path d="M213.849 254.547C213.849 254.547 200.904 255.792 192.937 270.978" stroke="#4376CF" stroke-miterlimit="10" stroke-linejoin="round"/>
<path d="M285.298 418.357L252.188 387.736" stroke="#91302C" stroke-width="0.75" stroke-miterlimit="10" stroke-linejoin="round"/>
<path d="M187.958 358.36C152.109 394.209 182.232 422.092 182.232 422.092" stroke="#91302C" stroke-width="0.75" stroke-miterlimit="10" stroke-linejoin="round"/>
<path d="M633.332 357.364C633.332 357.364 677.645 384.5 686.608 395.952C709.262 424.83 741.377 519.183 741.377 519.183L717.229 530.634C717.229 530.634 659.721 436.282 655.987 434.041C641.299 425.826 590.512 409.395 590.512 409.395" fill="#A06B60"/>
<path d="M577.567 322.262C612.171 329.98 668.683 374.293 668.683 374.293L612.42 443.75L567.36 412.383" fill="#4376CF"/>
<path d="M761.044 918.003L757.558 913.771L691.337 965.801C688.599 968.042 684.865 968.54 681.628 967.295L681.13 967.544L686.607 974.515C686.856 974.764 687.105 975.013 687.354 975.013H687.603C689.595 975.262 691.835 974.764 693.329 973.519L760.297 920.741C761.791 920.243 761.791 918.999 761.044 918.003Z" fill="#010101"/>
<path d="M705.03 826.638L736.896 891.365L752.828 915.264L688.848 965.553C687.105 967.046 684.367 966.548 683.122 964.806C682.126 963.561 681.877 961.569 682.873 960.076L701.296 920.741L659.721 860.495" fill="#A06B60"/>
<path d="M698.557 917.754L680.383 961.818C679.388 963.561 679.637 965.801 681.13 967.544C682.873 969.785 686.607 969.785 688.599 968.291L757.558 914.019L736.149 890.867C736.397 890.618 720.465 914.268 698.557 917.754Z" fill="#FFF1CC"/>
<path d="M693.578 923.978C697.312 924.973 701.046 926.218 704.532 928.21" stroke="#010101" stroke-miterlimit="10" stroke-linecap="round" stroke-linejoin="round"/>
<path d="M691.586 929.952C695.57 931.197 697.81 931.944 700.798 933.687" stroke="#010101" stroke-miterlimit="10" stroke-linecap="round" stroke-linejoin="round"/>
<path d="M689.346 934.683C692.084 935.429 695.321 936.923 697.81 938.168" stroke="#010101" stroke-miterlimit="10" stroke-linecap="round" stroke-linejoin="round"/>
<path d="M558.895 562.251C558.895 562.251 560.389 724.817 572.837 760.666C588.52 805.975 648.767 904.808 648.767 904.808L729.925 862.238L662.957 735.024C659.969 729.298 658.476 722.576 658.476 716.103C658.974 695.689 660.467 650.131 661.961 637.933C663.455 625.236 668.434 614.282 672.915 602.333C681.628 578.184 690.342 550.551 686.607 524.66" fill="#173682"/>
<path d="M581.052 553.289C581.052 553.289 582.546 715.854 594.994 751.703C610.677 797.013 669.679 893.855 669.679 893.855" stroke="#010101" stroke-width="0.75" stroke-miterlimit="10" stroke-linejoin="round"/>
<path d="M490.434 973.27V967.793H406.288C402.803 967.793 399.566 966.051 397.824 963.063H397.326V972.025C397.326 972.274 397.575 972.772 397.575 973.021L397.824 973.27C399.318 974.764 401.309 975.76 403.301 975.76H488.442C489.438 975.262 490.434 974.266 490.434 973.27Z" fill="#010101"/>
<path d="M502.632 866.719L487.695 937.172L485.455 965.802H404.048C401.807 965.802 399.815 964.059 399.815 961.569C399.815 959.827 400.811 958.333 402.554 957.586L441.39 937.919L446.618 864.976" fill="#A06B60"/>
<path d="M441.39 934.185L400.065 957.586C398.322 958.333 397.077 960.325 397.077 962.565C397.077 965.553 400.065 967.793 402.554 967.793H490.434L487.944 936.176C487.944 936.176 460.809 945.139 441.39 934.185Z" fill="#FFF1CC"/>
<path d="M433.673 936.176C436.163 939.413 438.154 942.649 439.897 946.383" stroke="#010101" stroke-miterlimit="10" stroke-linecap="round" stroke-linejoin="round"/>
<path d="M428.196 939.413C430.685 942.898 431.681 944.89 433.175 948.126" stroke="#010101" stroke-miterlimit="10" stroke-linecap="round" stroke-linejoin="round"/>
<path d="M423.715 941.902C425.458 944.143 426.951 947.379 428.196 949.869" stroke="#010101" stroke-miterlimit="10" stroke-linecap="round" stroke-linejoin="round"/>
<path d="M532.258 533.871L526.532 572.209C526.532 572.209 462.053 665.068 443.382 735.024C434.171 769.13 414.753 912.526 414.753 912.526H508.358C508.358 912.526 529.768 777.096 542.714 746.226C555.659 715.605 610.179 635.194 619.391 621.502C655.986 593.37 663.953 544.078 645.282 498.022" fill="#1238A7"/>
<path d="M565.368 705.398L616.403 626.481C618.395 623.742 620.636 621.004 623.374 619.012C630.345 613.286 649.763 591.877 652.501 571.214" stroke="#010101" stroke-width="0.75" stroke-miterlimit="10" stroke-linejoin="round"/>
<path d="M549.186 533.871L544.456 564.99C543.709 569.72 541.967 574.201 539.228 578.184C524.789 599.843 475.994 675.773 460.062 735.024C450.85 769.13 431.432 912.526 431.432 912.526" stroke="#010101" stroke-width="0.75" stroke-miterlimit="10" stroke-linejoin="round"/>
<path d="M417.989 889.871H512.341" stroke="#010101" stroke-width="0.75" stroke-miterlimit="10" stroke-linejoin="round"/>
<path d="M628.851 568.973L583.542 569.471C583.542 569.471 577.816 599.843 579.559 601.586C582.048 604.075 594.745 616.025 599.475 616.025C604.205 616.025 617.897 604.324 620.636 601.586C623.623 598.847 628.851 568.973 628.851 568.973Z" stroke="#010101" stroke-width="0.75" stroke-miterlimit="10" stroke-linejoin="round"/>
<path d="M582.297 575.695H587.276" stroke="#010101" stroke-width="0.75" stroke-linejoin="round"/>
<path d="M592.504 575.695H620.138" stroke="#010101" stroke-width="0.75" stroke-linejoin="round" stroke-dasharray="4.05 4.05"/>
<path d="M622.627 575.695H627.606" stroke="#010101" stroke-width="0.75" stroke-linejoin="round"/>
<path d="M682.624 564.492L669.181 565.986C669.181 565.986 666.692 596.856 668.683 598.349L672.915 604.822" stroke="#010101" stroke-width="0.75" stroke-miterlimit="10" stroke-linejoin="round"/>
<path d="M668.683 572.458L673.662 571.961" stroke="#010101" stroke-width="0.75" stroke-linejoin="round"/>
<path d="M676.401 571.712L681.38 571.214" stroke="#010101" stroke-width="0.75" stroke-linejoin="round"/>
<path d="M638.311 887.133L720.963 844.562" stroke="#010101" stroke-width="0.75" stroke-miterlimit="10" stroke-linejoin="round"/>
<path d="M557.9 313.3C620.635 334.212 654.991 419.602 694.574 533.871C694.574 533.871 603.209 561.753 516.076 555.779C517.57 506.486 511.844 389.977 511.844 389.977L529.768 318.528" fill="#4376CF"/>
<path d="M643.788 405.163C643.788 405.163 613.914 345.166 572.339 320.022" stroke="#1D334F" stroke-width="0.75" stroke-miterlimit="10" stroke-linejoin="round"/>
<path d="M513.338 275.708C513.338 280.687 509.355 284.92 504.127 284.92C498.899 284.92 494.916 280.936 494.916 275.708C494.916 270.729 498.899 266.497 504.127 266.497C509.355 266.497 513.338 270.48 513.338 275.708Z" stroke="white" stroke-width="0.5" stroke-miterlimit="10" stroke-linejoin="round"/>
<path d="M511.844 305.583L519.313 265.999L543.461 286.911L547.444 292.388L558.149 313.051C558.149 313.051 547.444 336.452 527.528 333.714C526.283 333.465 525.537 332.718 525.039 331.722L511.844 305.583Z" fill="#A06B60"/>
<path d="M502.882 250.564C497.654 262.265 491.181 304.836 500.392 311.059C509.354 317.034 525.785 314.545 532.756 308.072C538.98 302.595 549.436 268.738 541.967 258.78C534.25 248.822 510.35 234.133 502.882 250.564Z" fill="#A06B60"/>
<path d="M551.925 254.796C546.946 239.361 537.984 236.872 524.541 236.872C512.342 236.872 499.397 236.872 489.936 244.838C487.696 246.83 486.202 249.071 486.451 252.058C487.198 256.788 492.177 260.024 496.409 260.771C502.882 262.016 509.106 263.261 515.329 265.003C521.802 266.746 524.79 273.219 530.267 276.206C531.262 276.704 532.258 277.202 533.254 277.7C535.246 278.945 536.988 281.185 537.486 283.675C537.984 285.417 537.735 287.409 538.233 289.152C538.98 292.139 541.718 293.633 543.959 295.127C545.95 296.371 549.934 298.363 549.934 298.363C549.934 298.363 557.402 286.164 557.402 274.464C557.9 268.738 556.655 259.278 551.925 254.796Z" fill="#010101"/>
<path d="M517.57 315.043C517.57 315.043 530.765 313.798 534.748 304.338" stroke="#784E45" stroke-width="0.75" stroke-miterlimit="10" stroke-linejoin="round"/>
<path d="M500.392 275.957C500.392 275.957 488.692 287.907 490.185 291.143C491.679 294.38 497.156 293.633 497.156 293.633" fill="#A06B60"/>
<path d="M505.62 274.962C505.122 275.708 505.122 276.704 504.873 277.451C504.624 278.447 505.62 279.443 506.865 279.194C508.857 278.945 509.354 274.464 506.865 274.215C506.367 274.215 505.869 274.464 505.62 274.962Z" fill="#010101"/>
<path d="M499.148 297.367L513.836 295.873C513.836 295.873 512.591 306.578 503.878 306.827C498.65 306.827 499.148 297.367 499.148 297.367Z" fill="white"/>
<path d="M503.629 270.729C506.865 271.227 509.852 272.472 512.591 274.215C512.84 274.215 514.085 272.721 513.587 271.725C513.338 270.978 508.608 268.489 504.375 267.742C504.375 267.991 503.131 270.232 503.629 270.729Z" fill="#010101"/>
<path d="M516.325 276.704C516.325 281.683 512.342 285.915 507.114 285.915C502.135 285.915 497.903 281.932 497.903 276.704C497.903 271.476 501.886 267.493 507.114 267.493C512.342 267.493 516.325 271.476 516.325 276.704Z" stroke="white" stroke-width="0.5" stroke-miterlimit="10" stroke-linejoin="round"/>
<path d="M498.401 274.464L495.413 273.468" stroke="white" stroke-width="0.5" stroke-miterlimit="10" stroke-linejoin="round"/>
<path d="M516.325 276.206L534.748 280.687" stroke="white" stroke-width="0.5" stroke-miterlimit="10" stroke-linejoin="round"/>
<path d="M532.009 282.181C533.503 280.189 535.494 277.949 537.735 278.198C538.98 278.198 539.976 278.945 540.722 279.941C544.457 284.92 543.461 292.886 537.984 296.371C535.743 297.865 533.005 298.114 531.511 295.376L531.262 283.426C531.262 282.928 531.511 282.43 532.009 282.181Z" fill="#A06B60"/>
<path d="M540.474 294.131C540.474 294.131 536.491 298.363 532.259 296.371" stroke="#784E45" stroke-width="0.75" stroke-miterlimit="10" stroke-linejoin="round"/>
<path d="M492.923 372.799C492.923 372.799 469.024 435.535 465.539 440.514C461.307 446.489 388.862 518.187 388.862 518.187L402.056 544.825C402.056 544.825 494.417 490.802 506.367 475.616C517.57 461.426 536.739 411.885 536.739 411.885" fill="#A06B60"/>
<path d="M570.597 326.494C549.934 317.283 523.545 318.777 500.641 355.871C485.455 380.766 465.539 421.345 465.539 421.345L536.739 457.941L574.331 380.019" fill="#4376CF"/>
<path d="M568.605 391.471L536.739 457.941L465.539 421.345" stroke="#1D334F" stroke-width="0.75" stroke-miterlimit="10" stroke-linejoin="round"/>
<path d="M540.224 322.76C540.224 322.76 554.663 319.524 567.857 325.25" stroke="#1D334F" stroke-width="0.75" stroke-miterlimit="10" stroke-linejoin="round"/>
<path d="M471.514 409.146L542.714 445.244" stroke="#1D334F" stroke-width="0.75" stroke-miterlimit="10" stroke-linejoin="round"/>
<path d="M393.841 513.208C393.841 513.208 385.128 521.423 374.921 523.664C374.921 523.664 375.17 528.892 375.418 529.888C374.174 531.132 365.211 535.365 361.726 536.609C357.245 538.103 351.27 540.593 351.519 543.082C351.768 546.318 376.912 537.605 376.912 537.605C376.912 537.605 350.772 547.563 351.27 550.302C351.768 554.036 378.157 544.078 378.157 544.078C378.157 544.078 356 553.04 356.498 555.779C356.996 558.517 372.929 551.795 379.9 549.804C375.17 552.044 362.473 557.023 362.722 559.015C362.971 561.007 372.929 558.517 375.418 557.521C389.858 552.293 415.749 536.111 415.749 536.111" fill="#A06B60"/>
<path d="M801.374 858.005L796.893 939.91C796.893 939.91 754.82 969.038 754.82 969.536C754.82 970.034 793.657 971.527 793.657 971.527L810.834 963.063H839.215C841.206 963.063 842.7 961.32 842.202 959.329L838.717 943.894L850.418 878.419" fill="#FFA18D"/>
<path d="M757.559 964.059C763.783 960.573 784.695 947.13 784.695 947.13L810.586 963.312H842.949V975.262H809.59V968.042H806.602C805.855 968.042 805.109 968.291 804.611 968.789L797.142 974.266C796.395 975.013 795.151 975.262 794.155 975.262H754.572C749.344 975.262 748.099 969.536 757.559 964.059Z" fill="#010101"/>
<path d="M819.299 965.552L840.709 952.109L839.713 947.13L816.312 963.312L819.299 965.552Z" fill="#010101"/>
<path d="M953.981 810.456L1012.73 867.964C1012.73 867.964 1006.76 918.75 1007.26 919.248C1007.75 919.496 1034.39 891.365 1034.39 891.365L1039.37 872.943L1058.04 851.533C1059.29 850.039 1059.04 847.798 1057.3 846.803L1043.35 839.334L1001.78 787.054" fill="#FFA18D"/>
<path d="M1004.77 913.024C1006.01 906.053 1010 881.407 1010 881.407L1039.12 872.693L1060.53 848.296L1069.49 856.263L1047.34 881.407L1041.86 876.677L1039.87 878.917C1039.37 879.415 1039.12 880.162 1039.12 880.909L1038.38 890.12C1038.38 891.116 1037.88 892.112 1037.13 892.859L1010.99 922.733C1007.75 926.716 1002.53 923.729 1004.77 913.024Z" fill="#010101"/>
<path d="M1046.59 867.715L1050.82 842.819L1046.09 840.33L1042.86 868.461L1046.59 867.715Z" fill="#010101"/>
<path d="M842.7 521.423C842.7 521.423 796.644 653.617 790.67 710.129C784.695 766.64 779.716 912.775 779.716 912.775H864.359C864.359 912.775 876.06 728.302 884.026 699.922C888.508 684.487 893.736 655.608 904.191 605.071C918.382 568.973 925.352 555.281 918.88 525.407" fill="#F05448"/>
<path d="M877.802 519.93C877.802 519.93 877.802 562.002 874.068 581.919C869.338 602.83 842.949 677.267 856.89 716.85C871.081 756.433 975.391 864.727 975.391 864.727L1021.45 806.473L933.816 691.955L956.471 601.586C956.471 601.586 978.628 562.002 957.965 521.921" fill="#F05448"/>
<path d="M877.802 541.837C877.802 541.837 877.802 562.002 874.068 581.67C869.338 602.581 842.949 677.018 856.89 716.601C860.127 725.812 867.844 738.011 877.553 751.454" stroke="#91302C" stroke-width="0.75" stroke-miterlimit="10" stroke-linejoin="round"/>
<path d="M849.422 491.798L842.451 521.174C886.018 536.858 957.965 521.174 957.965 521.174L935.31 470.139" fill="#FFA18D"/>
<path d="M1014.48 814.937L926.348 706.145C923.111 702.162 921.867 696.934 922.863 691.955L939.791 605.32C940.289 602.581 941.036 600.092 942.281 597.602C947.011 587.395 953.235 553.289 948.256 536.858" stroke="#91302C" stroke-width="0.75" stroke-miterlimit="10" stroke-linejoin="round"/>
<path d="M838.219 533.871C838.219 533.871 875.811 554.534 963.192 533.871" stroke="#91302C" stroke-width="0.75" stroke-miterlimit="10" stroke-linejoin="round"/>
<path d="M865.853 541.339L861.62 540.842C860.376 540.593 859.38 539.597 859.629 538.352L861.62 528.643C861.869 527.398 863.114 526.651 864.359 526.9L874.317 527.647" stroke="#91302C" stroke-width="0.75" stroke-miterlimit="10" stroke-linejoin="round"/>
<path d="M842.7 521.423C886.267 537.107 958.214 521.423 958.214 521.423" stroke="#91302C" stroke-width="0.75" stroke-miterlimit="10" stroke-linejoin="round"/>
<path d="M869.089 536.858C871.151 536.858 872.823 535.521 872.823 533.871C872.823 532.221 871.151 530.884 869.089 530.884C867.027 530.884 865.355 532.221 865.355 533.871C865.355 535.521 867.027 536.858 869.089 536.858Z" fill="#F8F4F1"/>
<path d="M900.457 528.145L902.199 542.833" stroke="#91302C" stroke-width="0.75" stroke-miterlimit="10" stroke-linejoin="round"/>
<path d="M937.8 524.66L942.032 538.103" stroke="#91302C" stroke-width="0.75" stroke-miterlimit="10" stroke-linejoin="round"/>
<path d="M922.614 541.34C922.614 541.34 927.842 559.762 949.5 564.243" stroke="#91302C" stroke-width="0.75" stroke-miterlimit="10" stroke-linejoin="round"/>
<path d="M869.089 541.588C869.089 541.588 867.097 573.703 867.097 577.437C867.097 582.168 873.57 584.408 873.57 584.408" stroke="#91302C" stroke-width="0.75" stroke-miterlimit="10" stroke-linejoin="round"/>
<path d="M832.493 551.049C832.493 551.049 844.194 550.8 852.907 539.597" stroke="#91302C" stroke-width="0.75" stroke-miterlimit="10" stroke-linejoin="round"/>
<path d="M851.662 912.526L867.595 736.766" stroke="#91302C" stroke-width="0.75" stroke-miterlimit="10" stroke-linejoin="round"/>
<path d="M717.229 530.634L728.432 552.542C728.432 552.542 742.622 559.015 743.12 558.766C743.618 558.268 752.331 548.808 752.331 548.31C752.331 547.812 739.883 515.2 739.883 515.2" fill="#A06B60"/>
<path d="M837.472 373.048L811.332 452.464L747.352 526.9L762.787 541.837C762.787 541.837 838.717 486.321 850.169 470.637C861.62 454.953 891.246 372.799 891.246 372.799" fill="#FFA18D"/>
<path d="M752.58 522.917C748.099 526.651 739.137 533.124 734.656 536.609C731.917 538.85 727.436 542.833 727.934 544.078C729.428 547.065 735.9 539.348 736.647 540.841C737.145 541.837 731.17 546.318 728.183 548.559C725.444 550.551 721.959 553.787 722.706 555.53C723.702 557.77 738.888 545.821 738.888 545.821C738.888 545.821 723.453 558.766 724.2 560.509C725.444 562.998 741.128 550.053 741.128 550.053C741.128 550.053 728.183 561.256 728.93 563.247C729.925 564.99 739.386 556.774 743.618 553.787C740.879 556.525 733.411 562.749 734.158 564.243C734.904 565.488 741.128 561.504 742.373 560.26C751.086 553.289 766.77 538.103 766.77 538.103" fill="#FFA18D"/>
<path d="M736.647 540.841C736.647 540.841 743.368 541.339 749.592 538.601" stroke="#E07A6C" stroke-width="0.75" stroke-miterlimit="10" stroke-linejoin="round"/>
<path d="M722.955 541.837C724.697 546.318 725.942 550.551 728.183 554.783C728.68 555.779 729.676 557.023 730.921 556.525C731.917 556.028 731.917 554.783 731.668 553.538C731.17 551.298 730.174 546.319 730.174 546.319" fill="#A06B60"/>
<path d="M744.365 558.517C741.626 557.023 738.639 555.281 735.651 553.787C735.153 553.538 734.656 553.289 734.158 553.289C733.66 553.289 732.913 553.538 732.664 554.036C732.415 554.534 732.664 555.281 732.913 555.779C734.407 558.517 737.394 560.011 740.381 561.007C741.128 561.256 741.875 561.504 742.622 561.504C743.369 561.504 744.116 561.007 744.365 560.26" fill="#A06B60"/>
<path d="M747.103 556.774C744.613 554.783 741.626 553.289 739.136 551.297C738.638 551.049 738.14 550.551 737.643 550.551C737.145 550.302 736.398 550.551 736.149 551.049C735.9 551.546 735.9 552.293 736.149 552.791C737.145 555.779 739.883 557.77 742.622 559.264C743.368 559.762 743.866 560.011 744.613 560.011C745.36 560.011 747.601 560.011 747.601 557.023" fill="#A06B60"/>
<path d="M749.593 553.787C747.103 551.795 745.36 550.551 742.871 548.559C742.373 548.31 741.875 547.812 741.377 547.812C740.879 547.563 740.132 547.812 739.883 548.31C739.635 548.808 739.635 549.555 739.883 550.053C740.879 553.04 743.618 555.032 746.356 556.525C747.103 557.023 747.601 557.272 748.348 557.272C749.095 557.272 751.086 557.272 750.588 554.036" fill="#A06B60"/>
<path d="M752.58 551.297C750.09 549.057 749.094 547.812 746.605 545.821C746.107 545.572 745.858 545.074 745.36 544.825C744.862 544.576 744.115 544.825 743.866 545.074C743.368 545.572 743.617 546.318 743.617 546.816C744.364 549.804 747.103 552.044 749.592 553.787C750.09 554.285 750.837 554.534 751.584 554.783C752.331 554.783 754.571 554.036 753.327 550.551" fill="#A06B60"/>
<path d="M875.562 341.68C875.562 341.68 846.683 344.419 829.755 366.576C814.818 386.243 806.602 431.054 806.602 431.054L837.721 454.455L864.359 409.893" fill="white"/>
<path d="M846.434 377.778C824.527 411.387 824.527 501.258 824.527 501.258C824.527 501.258 881.536 521.921 968.171 499.018C968.171 499.018 950.247 406.408 941.534 397.944C933.069 389.728 882.283 333.714 882.283 333.714L852.907 357.116L846.434 377.778Z" fill="white"/>
<path d="M988.337 562.5C988.337 568.475 988.088 579.18 988.088 585.155C988.088 588.64 988.586 594.615 989.831 594.864C993.067 595.611 991.075 585.653 992.569 585.902C993.565 586.151 993.565 593.619 993.316 597.353C993.316 600.839 993.565 605.32 995.307 605.818C997.548 606.316 997.548 587.146 997.548 587.146C997.548 587.146 998.295 607.311 1000.04 607.809C1002.78 608.307 1002.28 587.893 1002.28 587.893C1002.28 587.893 1003.03 605.071 1005.02 605.569C1007.01 606.067 1006.26 593.37 1006.51 588.142C1007.01 591.877 1007.26 601.835 1008.75 602.083C1010.24 602.332 1010.74 594.864 1010.74 593.121C1010.49 582.167 1008.25 560.26 1008.25 560.26" fill="#FFA18D"/>
<path d="M967.424 390.475C967.424 390.475 991.573 440.514 996.303 451.717C1009.75 484.081 1009.25 563.745 1009.25 563.745L988.585 564.243C988.585 564.243 965.931 473.127 963.69 470.388C954.977 459.434 925.601 413.627 925.601 413.627" fill="#FFA18D"/>
<path d="M887.262 341.68C887.262 341.68 930.331 343.423 953.981 360.601C977.383 377.778 996.801 431.303 996.801 431.303L936.057 457.692L911.66 404.914" fill="white"/>
<path d="M911.41 405.163L935.808 457.692L996.552 431.552" stroke="#5A636D" stroke-width="0.75" stroke-miterlimit="10" stroke-linejoin="round"/>
<path d="M879.296 311.308L893.735 337.199C893.735 337.199 894.482 348.651 880.541 353.63C870.583 357.116 868.093 346.909 868.093 346.909L861.869 317.532" fill="#FFA18D"/>
<path d="M847.182 277.7C836.477 293.384 831.249 330.229 852.908 330.229C870.085 330.229 882.035 317.034 883.777 303.093C886.267 282.181 858.135 262.016 847.182 277.7Z" fill="#FFA18D"/>
<path d="M864.11 328.486C864.11 328.486 870.583 326.246 877.056 318.777" stroke="#E07A6C" stroke-width="0.75" stroke-miterlimit="10" stroke-linejoin="round"/>
<path d="M850.666 298.861C850.915 299.857 850.168 300.853 849.173 301.102C848.177 301.351 847.181 300.604 846.932 299.608C846.683 298.612 847.43 297.616 848.426 297.367C849.421 297.118 850.417 297.865 850.666 298.861Z" fill="#33002C"/>
<path d="M845.439 294.131C849.92 292.139 853.654 293.633 856.392 297.118C856.641 297.367 856.89 297.118 856.89 296.869C855.148 292.139 848.924 290.895 844.941 293.384C844.692 293.633 845.19 294.131 845.439 294.131Z" fill="#33002C"/>
<path d="M841.455 296.869C841.455 296.869 832.742 309.317 833.987 310.81C835.73 313.549 840.211 312.802 840.211 312.802" fill="#FFA18D"/>
<path d="M852.41 316.536L840.958 314.794C840.958 314.794 841.207 323.756 844.941 324.254C852.41 325.748 852.41 316.536 852.41 316.536Z" fill="white"/>
<path d="M889.752 259.029C879.296 253.801 866.102 255.046 856.641 263.012C849.671 263.012 839.713 266.995 836.227 276.704C834.236 282.181 833.987 289.152 839.464 294.878C840.211 292.139 844.194 281.932 847.928 278.696C851.662 281.434 857.139 287.658 859.131 290.148C862.865 295.127 866.101 300.355 868.591 306.081C871.329 311.806 874.815 317.283 877.802 323.009C881.039 328.735 884.524 334.461 889.254 339.191C896.225 346.162 905.187 350.892 914.647 353.879C923.858 357.116 933.816 358.858 943.276 361.099C949.5 362.592 955.973 364.335 960.703 368.318C963.939 371.057 967.923 376.036 970.163 379.521C973.151 370.061 972.902 360.85 970.163 353.63C967.674 346.411 962.695 343.921 961.201 340.934C957.716 333.963 960.205 331.474 959.209 323.756C958.213 317.532 954.728 312.055 949.998 308.072C944.023 303.342 936.555 302.346 929.335 301.101C923.111 300.106 916.639 297.865 911.66 294.131C906.681 290.397 906.432 280.439 903.942 275.211C901.453 268.489 896.225 262.016 889.752 259.029Z" fill="#010101"/>
<path d="M864.608 306.329C866.101 303.093 869.587 303.093 871.329 303.591C875.064 305.085 876.308 309.566 875.562 313.798C874.566 318.279 871.827 319.773 869.836 320.022C867.595 320.271 865.604 318.03 865.355 314.545" fill="#FFA18D"/>
<path d="M827.763 446.987C827.763 446.987 831 395.454 838.219 380.517" stroke="#5A636D" stroke-width="0.75" stroke-miterlimit="10" stroke-linejoin="round"/>
</svg>
